M48
; DRILL file {KiCad 9.0.2} date 2025-07-03T22:06:05+0530
; FORMAT={-:-/ absolute / metric / decimal}
; #@! TF.CreationDate,2025-07-03T22:06:05+05:30
; #@! TF.GenerationSoftware,Kicad,Pcbnew,9.0.2
; #@! TF.FileFunction,Plated,1,2,PTH
FMAT,2
METRIC
; #@! TA.AperFunction,Plated,PTH,ViaDrill
T1C0.300
; #@! TA.AperFunction,Plated,PTH,ComponentDrill
T2C0.800
; #@! TA.AperFunction,Plated,PTH,ComponentDrill
T3C1.300
; #@! TA.AperFunction,Plated,PTH,ComponentDrill
T4C1.500
%
G90
G05
T1
X18.4Y-40.4
X19.862Y-42.147
X19.9Y-43.5
X20.0Y-31.1
X20.5Y-43.0
X22.975Y-43.075
X23.086Y-40.613
X23.895Y-44.328
X24.4Y-47.2
X27.262Y-47.3
X27.705Y-44.328
X29.5Y-53.0
X30.32Y-24.21
X33.45Y-41.585
X33.5Y-43.5
X34.0Y-23.085
X34.5Y-106.5
X34.55Y-41.5
X34.55Y-43.415
X34.9Y-101.1
X35.5Y-119.33
X35.926Y-103.0
X37.5Y-61.0
X37.5Y-62.83
X37.6Y-99.085
X37.6Y-101.0
X37.8Y-93.5
X38.6Y-62.83
X39.5Y-100.7
X39.618Y-99.198
X39.95Y-80.085
X39.95Y-81.915
X40.537Y-83.003
X41.05Y-80.085
X41.05Y-81.915
X41.5Y-92.5
X41.8Y-100.0
X44.2Y-62.2
X46.5Y-54.5
X46.5Y-59.0
X51.4Y-43.5
X51.45Y-41.585
X52.55Y-41.585
X52.55Y-43.415
X53.005Y-23.085
X55.0Y-100.3
X59.0Y-119.4
X61.45Y-61.0
X61.45Y-62.83
X61.9Y-100.8
X62.0Y-99.0
X62.55Y-61.0
X62.55Y-62.83
X63.05Y-98.985
X63.1Y-100.915
X65.9Y-80.17
X65.9Y-82.0
X67.0Y-80.17
X67.0Y-82.0
X70.95Y-41.585
X70.95Y-43.415
X72.01Y-23.085
X72.05Y-41.585
X72.05Y-43.415
X75.25Y-100.05
X76.95Y-99.085
X76.95Y-100.915
X78.05Y-99.085
X78.05Y-100.915
X80.17Y-61.0
X80.17Y-62.83
X81.27Y-61.0
X81.27Y-62.83
X82.78Y-119.43
X83.88Y-119.43
X85.35Y-80.17
X85.35Y-82.0
X85.44Y-116.724
X86.0Y-102.5
X86.45Y-80.17
X86.45Y-82.0
X86.5Y-60.525
X86.5Y-63.475
X87.666Y-114.734
X87.736Y-116.82
X89.2Y-99.9
X89.545Y-116.61
X89.802Y-41.585
X89.802Y-43.415
X90.1Y-114.8
X90.7Y-60.3
X90.7Y-63.3
X90.902Y-41.585
X90.902Y-43.415
X91.015Y-23.085
X94.45Y-99.085
X95.55Y-99.085
X95.55Y-100.915
X95.7Y-79.0
X95.7Y-82.1
X97.284Y-107.669
X97.9Y-110.5
X98.1Y-101.1
X99.6Y-41.225
X99.7Y-44.175
X99.95Y-61.0
X99.95Y-62.83
X100.2Y-98.5
X101.0Y-61.0
X101.05Y-62.83
X104.35Y-80.085
X104.35Y-81.915
X104.906Y-96.908
X105.45Y-80.085
X105.45Y-81.915
X108.95Y-41.585
X108.95Y-43.415
X109.2Y-100.83
X110.02Y-23.085
X110.05Y-41.585
X110.05Y-43.415
X113.9Y-99.0
X113.9Y-100.83
X115.0Y-99.0
X115.0Y-100.83
X118.45Y-61.0
X118.45Y-62.83
X119.3Y-23.525
X119.55Y-61.0
X119.55Y-62.83
X123.45Y-80.085
X123.45Y-81.915
X124.55Y-80.085
X124.55Y-81.915
X127.95Y-41.585
X127.95Y-43.415
X129.025Y-23.085
X129.05Y-41.585
X129.05Y-43.415
X130.55Y-108.585
X132.8Y-99.0
X132.8Y-100.83
X133.6Y-114.8
X133.9Y-99.0
X133.9Y-100.83
X134.45Y-111.55
X134.8Y-117.3
X136.95Y-61.0
X136.95Y-62.83
X137.6Y-114.7
X138.05Y-61.0
X138.05Y-62.83
X141.9Y-80.17
X141.9Y-82.0
X142.5Y-97.5
X142.6Y-117.3
X142.7Y-114.9
X143.0Y-80.17
X143.0Y-82.0
X144.0Y-116.1
X146.196Y-116.905
X147.0Y-102.5
X147.35Y-41.585
X147.35Y-43.415
X148.03Y-23.085
X148.45Y-41.585
X148.45Y-43.415
X148.537Y-118.691
X149.113Y-119.564
X151.54Y-98.67
X151.54Y-100.5
X152.64Y-98.67
X152.64Y-100.5
X154.4Y-119.4
X156.45Y-61.0
X156.45Y-62.83
X157.55Y-61.0
X157.55Y-62.83
X160.0Y-105.5
X160.5Y-103.5
X161.45Y-80.085
X161.45Y-81.915
X162.55Y-80.085
X162.55Y-81.915
X164.0Y-108.5
X164.3Y-103.7
X164.37Y-114.84
X165.95Y-41.585
X165.95Y-43.415
X166.1Y-108.4
X167.035Y-23.085
X167.05Y-41.585
X167.05Y-43.415
X168.7Y-108.4
X168.965Y-103.264
X170.278Y-112.089
X171.4Y-98.67
X171.4Y-100.5
X171.4Y-114.5
X171.4Y-116.35
X171.6Y-110.4
X171.695Y-94.397
X172.446Y-103.838
X172.5Y-98.67
X172.5Y-100.5
X173.5Y-110.0
X173.6Y-96.9
X173.6Y-114.65
X175.0Y-99.0
X175.45Y-61.0
X175.45Y-62.83
X176.2Y-103.7
X176.5Y-109.025
X176.5Y-119.0
X176.55Y-61.0
X176.55Y-62.83
X178.0Y-106.0
X178.04Y-110.119
X178.5Y-56.1
X179.758Y-107.6
X179.758Y-109.2
X179.758Y-114.0
X179.85Y-80.085
X179.85Y-81.915
X180.0Y-102.5
X180.0Y-110.0
X180.5Y-104.5
X180.51Y-116.98
X180.95Y-80.085
X180.95Y-81.915
X181.5Y-104.4
X181.5Y-107.0
X181.5Y-110.9
X181.5Y-115.742
X181.5Y-120.5
X182.3Y-104.258
X182.6Y-100.1
X183.0Y-108.5
X183.1Y-104.258
X183.1Y-115.742
X183.3Y-119.8
X183.9Y-115.742
X184.7Y-115.742
X185.45Y-41.585
X185.45Y-43.415
X185.6Y-63.3
X185.7Y-60.3
X186.0Y-109.2
X186.04Y-23.085
X186.3Y-112.2
X186.55Y-41.585
X186.55Y-43.415
X187.0Y-119.5
X187.1Y-100.5
X187.1Y-104.258
X187.1Y-115.742
X187.5Y-98.5
X187.9Y-115.742
X188.0Y-100.5
X188.0Y-112.2
X188.3Y-109.5
X188.5Y-96.5
X188.7Y-104.258
X188.73Y-92.852
X188.734Y-100.632
X188.9Y-114.0
X189.5Y-79.325
X189.5Y-82.4
X189.5Y-104.258
X189.9Y-108.5
X189.9Y-109.8
X190.3Y-116.8
X190.8Y-37.1
X191.0Y-118.2
X191.087Y-97.625
X191.242Y-109.2
X191.242Y-110.0
X191.242Y-111.6
X191.4Y-98.67
X191.4Y-100.5
X191.413Y-95.6
X192.5Y-98.67
X192.5Y-100.5
X193.4Y-110.7
X193.9Y-61.0
X193.9Y-62.83
X195.0Y-61.0
X195.0Y-62.83
X195.4Y-114.3
X196.3Y-41.025
X196.3Y-43.975
X196.8Y-114.3
X197.0Y-116.7
X198.2Y-94.3
X199.45Y-80.085
X199.45Y-81.915
X200.0Y-101.0
X200.1Y-98.1
X200.55Y-80.085
X200.55Y-81.915
X201.5Y-110.5
X201.5Y-112.5
X201.5Y-115.0
X202.5Y-108.3
X204.45Y-41.585
X204.45Y-43.415
X205.045Y-23.085
X205.55Y-41.585
X205.55Y-43.415
X209.391Y-113.971
X209.4Y-98.67
X209.4Y-100.5
X209.4Y-110.125
X209.5Y-118.5
X209.9Y-105.7
X210.5Y-98.67
X210.5Y-100.5
X210.75Y-119.25
X211.0Y-107.43
X212.7Y-112.3
X212.863Y-108.969
X212.9Y-110.2
X213.4Y-23.325
X213.45Y-61.0
X213.45Y-62.83
X213.9Y-116.0
X214.0Y-118.0
X214.55Y-61.0
X214.55Y-62.83
X215.9Y-117.1
X216.0Y-104.5
X218.45Y-80.085
X218.45Y-81.915
X219.55Y-80.085
X219.55Y-81.915
X220.21Y-41.585
X220.21Y-43.415
X221.0Y-103.5
X221.3Y-114.8
X221.31Y-41.585
X221.31Y-43.415
X223.6Y-114.1
X224.05Y-23.085
X225.2Y-114.9
X226.0Y-117.5
X226.0Y-119.33
X226.2Y-116.6
X227.1Y-117.5
X228.4Y-99.0
X228.4Y-100.83
X229.2Y-114.9
X229.5Y-99.0
X229.5Y-100.83
X230.8Y-102.7
X231.772Y-104.307
X232.95Y-61.085
X232.95Y-62.915
X234.05Y-61.085
X234.05Y-62.915
X234.508Y-103.978
X234.849Y-102.614
X237.4Y-114.9
X237.83Y-80.085
X237.83Y-81.915
X238.93Y-80.085
X238.93Y-81.915
X239.0Y-100.3
X242.95Y-41.585
X242.95Y-43.415
X243.55Y-23.085
X244.05Y-41.585
X244.05Y-43.415
X247.4Y-99.0
X248.5Y-99.0
X248.5Y-100.83
X249.5Y-119.5
X250.6Y-117.6
X251.95Y-61.085
X251.95Y-62.915
X253.05Y-61.085
X253.05Y-62.915
X255.1Y-100.83
X256.45Y-80.085
X256.45Y-81.915
X257.55Y-80.085
X257.55Y-81.915
X258.45Y-101.35
X258.578Y-98.038
X260.5Y-93.5
X261.5Y-95.9
X261.585Y-98.555
X261.67Y-100.83
X262.5Y-96.0
X262.55Y-23.085
X266.45Y-41.585
X266.45Y-43.415
X267.55Y-41.585
X267.55Y-43.415
X268.3Y-81.915
X269.3Y-85.9
X270.718Y-60.512
X270.75Y-62.315
X271.8Y-60.5
X271.8Y-62.3
X273.0Y-119.3
X273.2Y-80.7
X273.8Y-61.4
X274.1Y-117.5
X277.0Y-114.8
X277.5Y-76.5
X278.5Y-82.022
X280.6Y-81.2
X282.4Y-79.0
X282.9Y-99.0
X282.9Y-100.83
X284.0Y-99.0
X284.0Y-100.83
X284.5Y-62.2
X287.95Y-80.085
X287.95Y-81.915
X287.962Y-99.125
X289.05Y-80.085
X289.05Y-81.915
X291.5Y-23.17
X292.0Y-99.9
X292.45Y-43.415
X292.5Y-41.5
X293.55Y-41.585
X293.55Y-43.415
X294.95Y-61.085
X294.95Y-62.915
X295.4Y-86.6
X296.05Y-61.085
X296.05Y-62.915
X296.973Y-119.344
X298.0Y-117.5
X298.7Y-99.9
X302.0Y-82.3
X302.5Y-101.5
X303.2Y-86.7
X303.2Y-93.0
X306.3Y-99.9
X307.5Y-46.6
X307.5Y-64.0
X307.6Y-40.4
X312.6Y-60.0
X312.95Y-79.55
X313.0Y-82.0
X320.9Y-80.085
X320.9Y-81.915
X320.95Y-43.415
X320.95Y-60.585
X320.95Y-62.415
X320.95Y-99.0
X320.95Y-100.83
X320.95Y-119.43
X321.0Y-41.5
X321.55Y-23.085
X322.0Y-80.085
X322.0Y-81.915
X322.05Y-41.585
X322.05Y-43.415
X322.05Y-60.585
X322.05Y-62.415
X322.05Y-99.0
X322.05Y-119.43
X322.1Y-117.6
X322.9Y-87.8
X325.0Y-80.0
X325.3Y-41.6
X326.5Y-101.0
X326.7Y-42.633
X328.4Y-34.8
X328.44Y-112.923
X329.5Y-96.5
X330.1Y-118.2
X331.5Y-98.4
X331.5Y-104.5
X331.9Y-112.6
X332.1Y-118.801
X332.5Y-23.9
X332.5Y-30.1
X339.25Y-101.25
X344.0Y-92.5
X344.085Y-52.45
X344.085Y-64.45
X344.085Y-77.95
X345.9Y-53.6
X345.9Y-65.6
X345.9Y-79.1
X346.0Y-93.7
X346.05Y-23.085
X346.05Y-24.915
X346.3Y-117.7
X347.8Y-46.2
X349.8Y-44.7
X349.95Y-41.585
X349.95Y-43.415
X351.05Y-41.585
X351.05Y-43.415
T2
X24.5Y-28.9
X24.5Y-37.1
X27.0Y-105.9
X27.0Y-114.1
X28.4Y-86.6
X28.4Y-94.8
X29.5Y-47.9
X29.5Y-56.1
X31.0Y-66.9
X31.0Y-75.1
X43.5Y-28.9
X43.5Y-37.1
X50.5Y-105.9
X50.5Y-114.1
X53.0Y-47.9
X53.0Y-56.1
X57.5Y-66.9
X57.5Y-75.1
X62.5Y-28.9
X62.5Y-37.1
X67.0Y-86.9
X67.0Y-95.1
X72.0Y-47.9
X72.0Y-56.1
X74.5Y-105.9
X74.5Y-114.1
X77.0Y-66.9
X77.0Y-75.1
X81.5Y-28.9
X81.5Y-37.1
X86.0Y-86.9
X86.0Y-95.1
X91.0Y-47.9
X91.0Y-56.1
X96.0Y-66.9
X96.0Y-75.1
X100.5Y-28.9
X100.5Y-37.1
X105.5Y-86.9
X105.5Y-95.1
X110.0Y-47.9
X110.0Y-56.1
X115.0Y-66.9
X115.0Y-75.1
X119.5Y-28.9
X119.5Y-37.1
X124.5Y-86.9
X124.5Y-95.1
X129.0Y-47.9
X129.0Y-56.1
X134.0Y-66.9
X134.0Y-75.1
X138.5Y-28.9
X138.5Y-37.1
X143.5Y-86.9
X143.5Y-95.1
X145.0Y-105.9
X145.0Y-114.1
X148.0Y-47.9
X148.0Y-56.1
X153.0Y-66.9
X153.0Y-75.1
X157.5Y-28.9
X157.5Y-37.1
X162.5Y-86.9
X162.5Y-95.1
X167.0Y-47.9
X167.0Y-56.1
X172.0Y-66.9
X172.0Y-75.1
X176.5Y-28.9
X176.5Y-37.1
X181.5Y-86.9
X181.5Y-95.1
X186.5Y-47.9
X186.5Y-56.1
X191.0Y-66.9
X191.0Y-75.1
X196.0Y-27.9
X196.0Y-36.1
X200.5Y-86.9
X200.5Y-95.1
X205.5Y-47.9
X205.5Y-56.1
X210.0Y-66.9
X210.0Y-75.1
X215.0Y-27.9
X215.0Y-36.1
X217.6Y-105.9
X217.6Y-114.1
X219.5Y-86.9
X219.5Y-95.1
X224.5Y-47.9
X224.5Y-56.1
X229.0Y-66.9
X229.0Y-75.1
X234.0Y-27.9
X234.0Y-36.1
X238.5Y-86.9
X238.5Y-95.1
X241.0Y-105.9
X241.0Y-114.1
X243.5Y-47.9
X243.5Y-56.1
X248.0Y-66.9
X248.0Y-75.1
X253.0Y-27.9
X253.0Y-36.1
X262.5Y-47.9
X262.5Y-56.1
X264.319Y-86.9
X264.319Y-95.1
X265.0Y-105.9
X265.0Y-114.1
X270.3Y-66.9
X270.3Y-75.1
X273.1Y-27.9
X273.1Y-36.1
X280.8Y-46.5
X280.8Y-54.7
X288.5Y-105.9
X288.5Y-114.1
X312.5Y-27.9
X312.5Y-36.1
X312.5Y-47.9
X312.5Y-56.1
X312.5Y-66.9
X312.5Y-75.1
X312.5Y-86.9
X312.5Y-95.1
X312.5Y-105.9
X312.5Y-114.1
X336.5Y-27.9
X336.5Y-36.1
X336.5Y-105.9
X336.5Y-114.1
T3
X342.879Y-26.087
X342.879Y-40.587
X345.419Y-40.587
X347.959Y-26.087
X347.959Y-40.587
T4
X29.527Y-30.797
X31.909Y-106.997
X34.29Y-49.847
X35.877Y-28.258
X36.671Y-68.897
X38.259Y-104.457
X40.64Y-47.307
X41.434Y-87.947
X43.021Y-66.358
X47.784Y-85.407
X48.578Y-30.797
X54.927Y-28.258
X55.721Y-106.997
X58.102Y-49.847
X62.071Y-104.457
X62.865Y-68.897
X64.453Y-47.307
X67.627Y-30.797
X69.215Y-66.358
X72.39Y-87.947
X73.977Y-28.258
X77.153Y-49.847
X78.74Y-85.407
X79.534Y-106.997
X81.915Y-68.897
X83.502Y-47.307
X85.884Y-104.457
X86.677Y-30.797
X88.265Y-66.358
X91.44Y-87.947
X93.027Y-28.258
X96.203Y-49.847
X97.79Y-85.407
X100.965Y-68.897
X102.552Y-47.307
X105.727Y-30.797
X107.315Y-66.358
X110.49Y-87.947
X112.078Y-28.258
X115.252Y-49.847
X116.84Y-85.407
X120.015Y-68.897
X121.602Y-47.307
X124.777Y-30.797
X126.365Y-66.358
X129.54Y-87.947
X131.127Y-28.258
X134.302Y-49.847
X135.89Y-85.407
X139.065Y-68.897
X140.653Y-47.307
X143.827Y-30.797
X145.415Y-66.358
X148.59Y-87.947
X150.177Y-28.258
X150.971Y-106.997
X153.352Y-49.847
X154.94Y-85.407
X157.321Y-104.457
X158.115Y-68.897
X159.702Y-47.307
X162.877Y-30.797
X164.465Y-66.358
X167.64Y-87.947
X169.227Y-28.258
X172.403Y-49.847
X173.99Y-85.407
X177.165Y-68.897
X178.752Y-47.307
X181.927Y-30.797
X183.515Y-66.358
X186.69Y-87.947
X188.278Y-28.258
X191.452Y-49.847
X193.04Y-85.407
X196.215Y-68.897
X197.802Y-47.307
X200.977Y-30.797
X202.565Y-66.358
X205.74Y-87.947
X207.327Y-28.258
X210.502Y-49.847
X212.09Y-85.407
X215.265Y-68.897
X216.852Y-47.307
X220.028Y-30.797
X221.615Y-66.358
X222.409Y-106.997
X224.79Y-87.947
X226.377Y-28.258
X228.759Y-104.457
X229.552Y-49.847
X231.14Y-85.407
X234.315Y-68.897
X235.903Y-47.307
X239.077Y-30.797
X240.665Y-66.358
X243.84Y-87.947
X245.427Y-28.258
X246.221Y-106.997
X248.602Y-49.847
X250.19Y-85.407
X252.571Y-104.457
X253.365Y-68.897
X254.952Y-47.307
X258.127Y-30.797
X259.715Y-66.358
X264.477Y-28.258
X267.652Y-49.847
X270.034Y-106.997
X274.002Y-47.307
X276.384Y-104.457
X279.559Y-87.947
X284.321Y-68.897
X285.909Y-85.407
X286.702Y-30.797
X290.671Y-66.358
X291.465Y-49.847
X293.053Y-28.258
X293.846Y-106.997
X297.815Y-47.307
X300.196Y-104.457
X317.659Y-30.797
X317.659Y-49.847
X317.659Y-68.897
X317.659Y-87.947
X317.659Y-106.997
X324.009Y-28.258
X324.009Y-47.307
X324.009Y-66.358
X324.009Y-85.407
X324.009Y-104.457
X341.471Y-106.997
X347.821Y-104.457
T2
G00X17.3Y-39.0
M15
G01X16.7Y-39.0
M16
G05
G00X17.3Y-47.65
M15
G01X16.7Y-47.65
M16
G05
G00X21.58Y-39.0
M15
G01X20.78Y-39.0
M16
G05
G00X21.58Y-47.65
M15
G01X20.78Y-47.65
M16
G05
T4
G00X339.919Y-33.837
M15
G01X339.919Y-32.337
M16
G05
G00X350.919Y-33.837
M15
G01X350.919Y-32.337
M16
G05
M30
