M48
; DRILL file {KiCad 9.0.2} date 2025-07-03T22:06:05+0530
; FORMAT={-:-/ absolute / metric / decimal}
; #@! TF.CreationDate,2025-07-03T22:06:05+05:30
; #@! TF.GenerationSoftware,Kicad,Pcbnew,9.0.2
; #@! TF.FileFunction,NonPlated,1,2,NPTH
FMAT,2
METRIC
; #@! TA.AperFunction,NonPlated,NPTH,ComponentDrill
T1C1.750
; #@! TA.AperFunction,NonPlated,NPTH,ComponentDrill
T2C3.048
; #@! TA.AperFunction,NonPlated,NPTH,ComponentDrill
T3C3.988
; #@! TA.AperFunction,NonPlated,NPTH,ComponentDrill
T4C4.000
%
G90
G05
T1
X28.258Y-33.337
X30.639Y-109.537
X33.02Y-52.387
X35.401Y-71.438
X38.417Y-33.337
X40.164Y-90.487
X40.799Y-109.537
X43.18Y-52.387
X45.561Y-71.438
X47.307Y-33.337
X50.324Y-90.487
X54.451Y-109.537
X56.832Y-52.387
X57.467Y-33.337
X61.595Y-71.438
X64.611Y-109.537
X66.358Y-33.337
X66.992Y-52.387
X71.12Y-90.487
X71.755Y-71.438
X75.882Y-52.387
X76.517Y-33.337
X78.264Y-109.537
X80.645Y-71.438
X81.28Y-90.487
X85.407Y-33.337
X86.042Y-52.387
X88.424Y-109.537
X90.17Y-90.487
X90.805Y-71.438
X94.932Y-52.387
X95.567Y-33.337
X99.695Y-71.438
X100.33Y-90.487
X104.457Y-33.337
X105.093Y-52.387
X109.22Y-90.487
X109.855Y-71.438
X113.983Y-52.387
X114.617Y-33.337
X118.745Y-71.438
X119.38Y-90.487
X123.507Y-33.337
X124.142Y-52.387
X128.27Y-90.487
X128.905Y-71.438
X133.032Y-52.387
X133.667Y-33.337
X137.795Y-71.438
X138.43Y-90.487
X142.558Y-33.337
X143.192Y-52.387
X147.32Y-90.487
X147.955Y-71.438
X149.701Y-109.537
X152.082Y-52.387
X152.718Y-33.337
X156.845Y-71.438
X157.48Y-90.487
X159.861Y-109.537
X161.607Y-33.337
X162.243Y-52.387
X166.37Y-90.487
X167.005Y-71.438
X171.132Y-52.387
X171.767Y-33.337
X175.895Y-71.438
X176.53Y-90.487
X180.657Y-33.337
X181.292Y-52.387
X185.42Y-90.487
X186.055Y-71.438
X190.183Y-52.387
X190.817Y-33.337
X194.945Y-71.438
X195.58Y-90.487
X199.707Y-33.337
X200.343Y-52.387
X204.47Y-90.487
X205.105Y-71.438
X209.232Y-52.387
X209.867Y-33.337
X213.995Y-71.438
X214.63Y-90.487
X218.757Y-33.337
X219.392Y-52.387
X221.139Y-109.537
X223.52Y-90.487
X224.155Y-71.438
X228.282Y-52.387
X228.917Y-33.337
X231.299Y-109.537
X233.045Y-71.438
X233.68Y-90.487
X237.807Y-33.337
X238.442Y-52.387
X242.57Y-90.487
X243.205Y-71.438
X244.951Y-109.537
X247.332Y-52.387
X247.968Y-33.337
X252.095Y-71.438
X252.73Y-90.487
X255.111Y-109.537
X256.858Y-33.337
X257.493Y-52.387
X262.255Y-71.438
X266.382Y-52.387
X267.017Y-33.337
X268.764Y-109.537
X276.542Y-52.387
X278.289Y-90.487
X278.924Y-109.537
X283.051Y-71.438
X285.433Y-33.337
X288.449Y-90.487
X290.195Y-52.387
X292.576Y-109.537
X293.211Y-71.438
X295.592Y-33.337
X300.355Y-52.387
X302.736Y-109.537
X316.389Y-33.337
X316.389Y-52.387
X316.389Y-71.438
X316.389Y-90.487
X316.389Y-109.537
X326.549Y-33.337
X326.549Y-52.387
X326.549Y-71.438
X326.549Y-90.487
X326.549Y-109.537
X340.201Y-109.537
X350.361Y-109.537
T2
X33.306Y-83.502
X57.182Y-83.502
X104.781Y-102.552
X204.781Y-102.552
X271.431Y-83.502
X276.193Y-64.453
X278.575Y-26.352
X295.307Y-83.502
X300.069Y-64.453
X302.45Y-26.352
T3
X33.306Y-98.712
X57.182Y-98.712
X104.781Y-117.762
X204.781Y-117.762
X271.431Y-98.712
X276.193Y-79.662
X278.575Y-41.562
X295.307Y-98.712
X300.069Y-79.662
X302.45Y-41.562
T4
X33.337Y-33.337
X35.719Y-109.537
X38.1Y-52.387
X40.481Y-71.438
X45.244Y-90.487
X52.387Y-33.337
X59.531Y-109.537
X61.912Y-52.387
X66.675Y-71.438
X71.438Y-33.337
X76.2Y-90.487
X80.962Y-52.387
X83.344Y-109.537
X85.725Y-71.438
X90.487Y-33.337
X95.25Y-90.487
X100.012Y-52.387
X104.775Y-71.438
X109.537Y-33.337
X114.3Y-90.487
X119.062Y-52.387
X123.825Y-71.438
X128.588Y-33.337
X133.35Y-90.487
X138.112Y-52.387
X142.875Y-71.438
X147.637Y-33.337
X152.4Y-90.487
X154.781Y-109.537
X157.162Y-52.387
X161.925Y-71.438
X166.688Y-33.337
X171.45Y-90.487
X176.213Y-52.387
X180.975Y-71.438
X185.737Y-33.337
X190.5Y-90.487
X195.262Y-52.387
X200.025Y-71.438
X204.787Y-33.337
X209.55Y-90.487
X214.312Y-52.387
X219.075Y-71.438
X223.837Y-33.337
X226.219Y-109.537
X228.6Y-90.487
X233.362Y-52.387
X238.125Y-71.438
X242.887Y-33.337
X247.65Y-90.487
X250.031Y-109.537
X252.412Y-52.387
X257.175Y-71.438
X261.938Y-33.337
X271.462Y-52.387
X273.844Y-109.537
X283.369Y-90.487
X288.131Y-71.438
X290.512Y-33.337
X295.275Y-52.387
X297.656Y-109.537
X321.469Y-33.337
X321.469Y-52.387
X321.469Y-71.438
X321.469Y-90.487
X321.469Y-109.537
X345.281Y-109.537
M30
