%TF.GenerationSoftware,KiCad,Pcbnew,9.0.2*%
%TF.CreationDate,2025-07-03T22:06:11+05:30*%
%TF.ProjectId,KeeBoard,4b656542-6f61-4726-942e-6b696361645f,rev?*%
%TF.SameCoordinates,Original*%
%TF.FileFunction,Soldermask,Top*%
%TF.FilePolarity,Negative*%
%FSLAX46Y46*%
G04 Gerber Fmt 4.6, Leading zero omitted, Abs format (unit mm)*
G04 Created by KiCad (PCBNEW 9.0.2) date 2025-07-03 22:06:11*
%MOMM*%
%LPD*%
G01*
G04 APERTURE LIST*
G04 Aperture macros list*
%AMRoundRect*
0 Rectangle with rounded corners*
0 $1 Rounding radius*
0 $2 $3 $4 $5 $6 $7 $8 $9 X,Y pos of 4 corners*
0 Add a 4 corners polygon primitive as box body*
4,1,4,$2,$3,$4,$5,$6,$7,$8,$9,$2,$3,0*
0 Add four circle primitives for the rounded corners*
1,1,$1+$1,$2,$3*
1,1,$1+$1,$4,$5*
1,1,$1+$1,$6,$7*
1,1,$1+$1,$8,$9*
0 Add four rect primitives between the rounded corners*
20,1,$1+$1,$2,$3,$4,$5,0*
20,1,$1+$1,$4,$5,$6,$7,0*
20,1,$1+$1,$6,$7,$8,$9,0*
20,1,$1+$1,$8,$9,$2,$3,0*%
G04 Aperture macros list end*
%ADD10RoundRect,0.250000X0.325000X0.650000X-0.325000X0.650000X-0.325000X-0.650000X0.325000X-0.650000X0*%
%ADD11RoundRect,0.250000X0.650000X-0.325000X0.650000X0.325000X-0.650000X0.325000X-0.650000X-0.325000X0*%
%ADD12R,0.700000X0.700000*%
%ADD13C,1.600000*%
%ADD14C,1.750000*%
%ADD15C,4.000000*%
%ADD16C,2.500000*%
%ADD17RoundRect,0.250000X-0.250000X-0.475000X0.250000X-0.475000X0.250000X0.475000X-0.250000X0.475000X0*%
%ADD18C,3.048000*%
%ADD19C,3.987800*%
%ADD20O,2.300000X4.000000*%
%ADD21C,1.800000*%
%ADD22RoundRect,0.250000X-0.650000X0.325000X-0.650000X-0.325000X0.650000X-0.325000X0.650000X0.325000X0*%
%ADD23R,1.000000X0.750000*%
%ADD24O,2.000000X1.200000*%
%ADD25O,1.800000X1.200000*%
%ADD26R,1.300000X0.300000*%
%ADD27RoundRect,0.250000X0.312500X0.625000X-0.312500X0.625000X-0.312500X-0.625000X0.312500X-0.625000X0*%
G04 APERTURE END LIST*
D10*
%TO.C,C1*%
X192475000Y-119000000D03*
X189525000Y-119000000D03*
%TD*%
D11*
%TO.C,C2*%
X119300000Y-26475000D03*
X119300000Y-23525000D03*
%TD*%
D12*
%TO.C,LED81*%
X129450000Y-110415000D03*
X130550000Y-110415000D03*
X130550000Y-108585000D03*
X129450000Y-108585000D03*
%TD*%
%TO.C,LED80*%
X113900000Y-110330000D03*
X115000000Y-110330000D03*
X115000000Y-108500000D03*
X113900000Y-108500000D03*
%TD*%
D13*
%TO.C,D30*%
X312500000Y-56100000D03*
X312500000Y-47900000D03*
%TD*%
D14*
%TO.C,SW44*%
X252095000Y-71437500D03*
D15*
X257175000Y-71437500D03*
D14*
X262255000Y-71437500D03*
D16*
X253365000Y-68897500D03*
X259715000Y-66357500D03*
%TD*%
D12*
%TO.C,LED91*%
X344085000Y-92450000D03*
X344085000Y-93550000D03*
X345915000Y-93550000D03*
X345915000Y-92450000D03*
%TD*%
D14*
%TO.C,SW37*%
X118745000Y-71437500D03*
D15*
X123825000Y-71437500D03*
D14*
X128905000Y-71437500D03*
D16*
X120015000Y-68897500D03*
X126365000Y-66357500D03*
%TD*%
D12*
%TO.C,LED68*%
X151540000Y-100500000D03*
X152640000Y-100500000D03*
X152640000Y-98670000D03*
X151540000Y-98670000D03*
%TD*%
D13*
%TO.C,D44*%
X312500000Y-75100000D03*
X312500000Y-66900000D03*
%TD*%
%TO.C,D24*%
X186500000Y-56100000D03*
X186500000Y-47900000D03*
%TD*%
%TO.C,D28*%
X262500000Y-56100000D03*
X262500000Y-47900000D03*
%TD*%
D12*
%TO.C,LED36*%
X99950000Y-62830000D03*
X101050000Y-62830000D03*
X101050000Y-61000000D03*
X99950000Y-61000000D03*
%TD*%
D13*
%TO.C,D42*%
X248000000Y-75100000D03*
X248000000Y-66900000D03*
%TD*%
%TO.C,D51*%
X162500000Y-95100000D03*
X162500000Y-86900000D03*
%TD*%
%TO.C,D14*%
X273100000Y-36100000D03*
X273100000Y-27900000D03*
%TD*%
%TO.C,D63*%
X241000000Y-114100000D03*
X241000000Y-105900000D03*
%TD*%
%TO.C,D48*%
X105500000Y-95100000D03*
X105500000Y-86900000D03*
%TD*%
%TO.C,D43*%
X270300000Y-75100000D03*
X270300000Y-66900000D03*
%TD*%
D12*
%TO.C,LED17*%
X33450000Y-43415000D03*
X34550000Y-43415000D03*
X34550000Y-41585000D03*
X33450000Y-41585000D03*
%TD*%
D14*
%TO.C,SW67*%
X292576250Y-109537500D03*
D15*
X297656250Y-109537500D03*
D14*
X302736250Y-109537500D03*
D16*
X293846250Y-106997500D03*
X300196250Y-104457500D03*
%TD*%
D14*
%TO.C,SW52*%
X147320000Y-90487500D03*
D15*
X152400000Y-90487500D03*
D14*
X157480000Y-90487500D03*
D16*
X148590000Y-87947500D03*
X154940000Y-85407500D03*
%TD*%
D14*
%TO.C,SW40*%
X175895000Y-71437500D03*
D15*
X180975000Y-71437500D03*
D14*
X186055000Y-71437500D03*
D16*
X177165000Y-68897500D03*
X183515000Y-66357500D03*
%TD*%
D13*
%TO.C,D15*%
X312500000Y-36100000D03*
X312500000Y-27900000D03*
%TD*%
D14*
%TO.C,SW4*%
X47307500Y-33337500D03*
D15*
X52387500Y-33337500D03*
D14*
X57467500Y-33337500D03*
D16*
X48577500Y-30797500D03*
X54927500Y-28257500D03*
%TD*%
D12*
%TO.C,LED6*%
X127925000Y-24915000D03*
X129025000Y-24915000D03*
X129025000Y-23085000D03*
X127925000Y-23085000D03*
%TD*%
%TO.C,LED18*%
X51450000Y-43415000D03*
X52550000Y-43415000D03*
X52550000Y-41585000D03*
X51450000Y-41585000D03*
%TD*%
%TO.C,LED65*%
X94450000Y-100915000D03*
X95550000Y-100915000D03*
X95550000Y-99085000D03*
X94450000Y-99085000D03*
%TD*%
D13*
%TO.C,D20*%
X110000000Y-56100000D03*
X110000000Y-47900000D03*
%TD*%
D12*
%TO.C,LED23*%
X147350000Y-43415000D03*
X148450000Y-43415000D03*
X148450000Y-41585000D03*
X147350000Y-41585000D03*
%TD*%
%TO.C,LED58*%
X237830000Y-81915000D03*
X238930000Y-81915000D03*
X238930000Y-80085000D03*
X237830000Y-80085000D03*
%TD*%
D14*
%TO.C,SW39*%
X156845000Y-71437500D03*
D15*
X161925000Y-71437500D03*
D14*
X167005000Y-71437500D03*
D16*
X158115000Y-68897500D03*
X164465000Y-66357500D03*
%TD*%
D12*
%TO.C,LED66*%
X113900000Y-100830000D03*
X115000000Y-100830000D03*
X115000000Y-99000000D03*
X113900000Y-99000000D03*
%TD*%
D14*
%TO.C,SW43*%
X233045000Y-71437500D03*
D15*
X238125000Y-71437500D03*
D14*
X243205000Y-71437500D03*
D16*
X234315000Y-68897500D03*
X240665000Y-66357500D03*
%TD*%
D12*
%TO.C,LED53*%
X141900000Y-82000000D03*
X143000000Y-82000000D03*
X143000000Y-80170000D03*
X141900000Y-80170000D03*
%TD*%
D11*
%TO.C,C3*%
X213400000Y-26275000D03*
X213400000Y-23325000D03*
%TD*%
D13*
%TO.C,D47*%
X86000000Y-95100000D03*
X86000000Y-86900000D03*
%TD*%
D14*
%TO.C,SW38*%
X137795000Y-71437500D03*
D15*
X142875000Y-71437500D03*
D14*
X147955000Y-71437500D03*
D16*
X139065000Y-68897500D03*
X145415000Y-66357500D03*
%TD*%
D13*
%TO.C,D19*%
X91000000Y-56100000D03*
X91000000Y-47900000D03*
%TD*%
D12*
%TO.C,LED60*%
X287950000Y-81915000D03*
X289050000Y-81915000D03*
X289050000Y-80085000D03*
X287950000Y-80085000D03*
%TD*%
D13*
%TO.C,D11*%
X215000000Y-36100000D03*
X215000000Y-27900000D03*
%TD*%
D12*
%TO.C,LED14*%
X290400000Y-25000000D03*
X291500000Y-25000000D03*
X291500000Y-23170000D03*
X290400000Y-23170000D03*
%TD*%
D13*
%TO.C,D35*%
X115000000Y-75100000D03*
X115000000Y-66900000D03*
%TD*%
%TO.C,D38*%
X172000000Y-75100000D03*
X172000000Y-66900000D03*
%TD*%
D12*
%TO.C,LED57*%
X218450000Y-81915000D03*
X219550000Y-81915000D03*
X219550000Y-80085000D03*
X218450000Y-80085000D03*
%TD*%
D13*
%TO.C,D61*%
X145000000Y-114100000D03*
X145000000Y-105900000D03*
%TD*%
D14*
%TO.C,SW8*%
X123507500Y-33337500D03*
D15*
X128587500Y-33337500D03*
D14*
X133667500Y-33337500D03*
D16*
X124777500Y-30797500D03*
X131127500Y-28257500D03*
%TD*%
D11*
%TO.C,C14*%
X200000000Y-100975000D03*
X200000000Y-98025000D03*
%TD*%
D14*
%TO.C,SW30*%
X266382500Y-52387500D03*
D15*
X271462500Y-52387500D03*
D14*
X276542500Y-52387500D03*
D16*
X267652500Y-49847500D03*
X274002500Y-47307500D03*
%TD*%
D12*
%TO.C,LED62*%
X36500000Y-100915000D03*
X37600000Y-100915000D03*
X37600000Y-99085000D03*
X36500000Y-99085000D03*
%TD*%
%TO.C,LED94*%
X344085000Y-52450000D03*
X344085000Y-53550000D03*
X345915000Y-53550000D03*
X345915000Y-52450000D03*
%TD*%
D13*
%TO.C,D22*%
X148000000Y-56100000D03*
X148000000Y-47900000D03*
%TD*%
D11*
%TO.C,C13*%
X104900000Y-99875000D03*
X104900000Y-96925000D03*
%TD*%
D13*
%TO.C,D55*%
X238500000Y-95100000D03*
X238500000Y-86900000D03*
%TD*%
%TO.C,D27*%
X243500000Y-56100000D03*
X243500000Y-47900000D03*
%TD*%
D17*
%TO.C,0.1uf_C2*%
X345550000Y-44000000D03*
X347450000Y-44000000D03*
%TD*%
D12*
%TO.C,LED69*%
X171400000Y-100500000D03*
X172500000Y-100500000D03*
X172500000Y-98670000D03*
X171400000Y-98670000D03*
%TD*%
D14*
%TO.C,SW46*%
X316388750Y-71437500D03*
D15*
X321468750Y-71437500D03*
D14*
X326548750Y-71437500D03*
D16*
X317658750Y-68897500D03*
X324008750Y-66357500D03*
%TD*%
D14*
%TO.C,SW49*%
X90170000Y-90487500D03*
D15*
X95250000Y-90487500D03*
D14*
X100330000Y-90487500D03*
D16*
X91440000Y-87947500D03*
X97790000Y-85407500D03*
%TD*%
D13*
%TO.C,D7*%
X138500000Y-37100000D03*
X138500000Y-28900000D03*
%TD*%
D12*
%TO.C,LED5*%
X108920000Y-24915000D03*
X110020000Y-24915000D03*
X110020000Y-23085000D03*
X108920000Y-23085000D03*
%TD*%
D13*
%TO.C,D5*%
X100500000Y-37100000D03*
X100500000Y-28900000D03*
%TD*%
D12*
%TO.C,LED37*%
X118450000Y-62830000D03*
X119550000Y-62830000D03*
X119550000Y-61000000D03*
X118450000Y-61000000D03*
%TD*%
D14*
%TO.C,SW59*%
X316388750Y-90487500D03*
D15*
X321468750Y-90487500D03*
D14*
X326548750Y-90487500D03*
D16*
X317658750Y-87947500D03*
X324008750Y-85407500D03*
%TD*%
D14*
%TO.C,SW48*%
X71120000Y-90487500D03*
D15*
X76200000Y-90487500D03*
D14*
X81280000Y-90487500D03*
D16*
X72390000Y-87947500D03*
X78740000Y-85407500D03*
%TD*%
D14*
%TO.C,SW25*%
X171132500Y-52387500D03*
D15*
X176212500Y-52387500D03*
D14*
X181292500Y-52387500D03*
D16*
X172402500Y-49847500D03*
X178752500Y-47307500D03*
%TD*%
D17*
%TO.C,0.1uf_C1*%
X341550000Y-44000000D03*
X343450000Y-44000000D03*
%TD*%
D14*
%TO.C,SW33*%
X35401250Y-71437500D03*
D15*
X40481250Y-71437500D03*
D14*
X45561250Y-71437500D03*
D16*
X36671250Y-68897500D03*
X43021250Y-66357500D03*
%TD*%
D13*
%TO.C,D52*%
X181500000Y-95100000D03*
X181500000Y-86900000D03*
%TD*%
D12*
%TO.C,LED75*%
X320950000Y-100830000D03*
X322050000Y-100830000D03*
X322050000Y-99000000D03*
X320950000Y-99000000D03*
%TD*%
D11*
%TO.C,C19*%
X120000000Y-110975000D03*
X120000000Y-108025000D03*
%TD*%
D14*
%TO.C,SW60*%
X30638750Y-109537500D03*
D15*
X35718750Y-109537500D03*
D14*
X40798750Y-109537500D03*
D16*
X31908750Y-106997500D03*
X38258750Y-104457500D03*
%TD*%
D12*
%TO.C,LED4*%
X89915000Y-24915000D03*
X91015000Y-24915000D03*
X91015000Y-23085000D03*
X89915000Y-23085000D03*
%TD*%
D11*
%TO.C,C10*%
X95700000Y-81975000D03*
X95700000Y-79025000D03*
%TD*%
D14*
%TO.C,SW66*%
X268763750Y-109537500D03*
D15*
X273843750Y-109537500D03*
D14*
X278923750Y-109537500D03*
D16*
X270033750Y-106997500D03*
X276383750Y-104457500D03*
%TD*%
D10*
%TO.C,C17*%
X195475000Y-116000000D03*
X192525000Y-116000000D03*
%TD*%
D18*
%TO.C,REF\u002A\u002A*%
X104781250Y-102552500D03*
D19*
X104781250Y-117762500D03*
D18*
X204781250Y-102552500D03*
D19*
X204781250Y-117762500D03*
%TD*%
D13*
%TO.C,D53*%
X200500000Y-95100000D03*
X200500000Y-86900000D03*
%TD*%
%TO.C,D23*%
X167000000Y-56100000D03*
X167000000Y-47900000D03*
%TD*%
D12*
%TO.C,LED2*%
X51905000Y-24915000D03*
X53005000Y-24915000D03*
X53005000Y-23085000D03*
X51905000Y-23085000D03*
%TD*%
%TO.C,LED32*%
X349950000Y-43415000D03*
X351050000Y-43415000D03*
X351050000Y-41585000D03*
X349950000Y-41585000D03*
%TD*%
D14*
%TO.C,SW5*%
X66357500Y-33337500D03*
D15*
X71437500Y-33337500D03*
D14*
X76517500Y-33337500D03*
D16*
X67627500Y-30797500D03*
X73977500Y-28257500D03*
%TD*%
D13*
%TO.C,D25*%
X205500000Y-56100000D03*
X205500000Y-47900000D03*
%TD*%
%TO.C,D2*%
X43500000Y-37100000D03*
X43500000Y-28900000D03*
%TD*%
D12*
%TO.C,LED20*%
X89801667Y-43415000D03*
X90901667Y-43415000D03*
X90901667Y-41585000D03*
X89801667Y-41585000D03*
%TD*%
D13*
%TO.C,D29*%
X280800000Y-54700000D03*
X280800000Y-46500000D03*
%TD*%
D11*
%TO.C,C6*%
X196300000Y-43975000D03*
X196300000Y-41025000D03*
%TD*%
D12*
%TO.C,LED59*%
X256450000Y-81915000D03*
X257550000Y-81915000D03*
X257550000Y-80085000D03*
X256450000Y-80085000D03*
%TD*%
D14*
%TO.C,SW13*%
X218757500Y-33337500D03*
D15*
X223837500Y-33337500D03*
D14*
X228917500Y-33337500D03*
D16*
X220027500Y-30797500D03*
X226377500Y-28257500D03*
%TD*%
D12*
%TO.C,LED15*%
X320450000Y-24915000D03*
X321550000Y-24915000D03*
X321550000Y-23085000D03*
X320450000Y-23085000D03*
%TD*%
%TO.C,LED13*%
X261450000Y-24915000D03*
X262550000Y-24915000D03*
X262550000Y-23085000D03*
X261450000Y-23085000D03*
%TD*%
D13*
%TO.C,D41*%
X229000000Y-75100000D03*
X229000000Y-66900000D03*
%TD*%
D14*
%TO.C,SW57*%
X242570000Y-90487500D03*
D15*
X247650000Y-90487500D03*
D14*
X252730000Y-90487500D03*
D16*
X243840000Y-87947500D03*
X250190000Y-85407500D03*
%TD*%
D14*
%TO.C,SW21*%
X94932500Y-52387500D03*
D15*
X100012500Y-52387500D03*
D14*
X105092500Y-52387500D03*
D16*
X96202500Y-49847500D03*
X102552500Y-47307500D03*
%TD*%
D14*
%TO.C,SW56*%
X223520000Y-90487500D03*
D15*
X228600000Y-90487500D03*
D14*
X233680000Y-90487500D03*
D16*
X224790000Y-87947500D03*
X231140000Y-85407500D03*
%TD*%
D14*
%TO.C,SW36*%
X99695000Y-71437500D03*
D15*
X104775000Y-71437500D03*
D14*
X109855000Y-71437500D03*
D16*
X100965000Y-68897500D03*
X107315000Y-66357500D03*
%TD*%
D12*
%TO.C,LED55*%
X179850000Y-81915000D03*
X180950000Y-81915000D03*
X180950000Y-80085000D03*
X179850000Y-80085000D03*
%TD*%
D13*
%TO.C,D56*%
X264318750Y-95100000D03*
X264318750Y-86900000D03*
%TD*%
%TO.C,D17*%
X53000000Y-56100000D03*
X53000000Y-47900000D03*
%TD*%
D14*
%TO.C,SW55*%
X204470000Y-90487500D03*
D15*
X209550000Y-90487500D03*
D14*
X214630000Y-90487500D03*
D16*
X205740000Y-87947500D03*
X212090000Y-85407500D03*
%TD*%
D12*
%TO.C,LED29*%
X266450000Y-43415000D03*
X267550000Y-43415000D03*
X267550000Y-41585000D03*
X266450000Y-41585000D03*
%TD*%
%TO.C,LED10*%
X203945000Y-24915000D03*
X205045000Y-24915000D03*
X205045000Y-23085000D03*
X203945000Y-23085000D03*
%TD*%
%TO.C,LED83*%
X170450000Y-110415000D03*
X171550000Y-110415000D03*
X171550000Y-108585000D03*
X170450000Y-108585000D03*
%TD*%
D13*
%TO.C,D49*%
X124500000Y-95100000D03*
X124500000Y-86900000D03*
%TD*%
D12*
%TO.C,LED19*%
X70950000Y-43415000D03*
X72050000Y-43415000D03*
X72050000Y-41585000D03*
X70950000Y-41585000D03*
%TD*%
D14*
%TO.C,SW63*%
X149701250Y-109537500D03*
D15*
X154781250Y-109537500D03*
D14*
X159861250Y-109537500D03*
D16*
X150971250Y-106997500D03*
X157321250Y-104457500D03*
%TD*%
D12*
%TO.C,LED61*%
X320900000Y-81915000D03*
X322000000Y-81915000D03*
X322000000Y-80085000D03*
X320900000Y-80085000D03*
%TD*%
%TO.C,LED28*%
X242950000Y-43415000D03*
X244050000Y-43415000D03*
X244050000Y-41585000D03*
X242950000Y-41585000D03*
%TD*%
D18*
%TO.C,REF\u002A\u002A*%
X33305750Y-83502500D03*
D19*
X33305750Y-98712500D03*
D18*
X57181750Y-83502500D03*
D19*
X57181750Y-98712500D03*
%TD*%
D12*
%TO.C,LED51*%
X104350000Y-81915000D03*
X105450000Y-81915000D03*
X105450000Y-80085000D03*
X104350000Y-80085000D03*
%TD*%
%TO.C,LED49*%
X65900000Y-82000000D03*
X67000000Y-82000000D03*
X67000000Y-80170000D03*
X65900000Y-80170000D03*
%TD*%
D13*
%TO.C,D9*%
X176500000Y-37100000D03*
X176500000Y-28900000D03*
%TD*%
D12*
%TO.C,LED26*%
X204450000Y-43415000D03*
X205550000Y-43415000D03*
X205550000Y-41585000D03*
X204450000Y-41585000D03*
%TD*%
%TO.C,LED87*%
X273000000Y-119330000D03*
X274100000Y-119330000D03*
X274100000Y-117500000D03*
X273000000Y-117500000D03*
%TD*%
%TO.C,LED46*%
X294950000Y-62915000D03*
X296050000Y-62915000D03*
X296050000Y-61085000D03*
X294950000Y-61085000D03*
%TD*%
%TO.C,LED73*%
X247400000Y-100830000D03*
X248500000Y-100830000D03*
X248500000Y-99000000D03*
X247400000Y-99000000D03*
%TD*%
%TO.C,LED48*%
X39950000Y-81915000D03*
X41050000Y-81915000D03*
X41050000Y-80085000D03*
X39950000Y-80085000D03*
%TD*%
D13*
%TO.C,D64*%
X265000000Y-114100000D03*
X265000000Y-105900000D03*
%TD*%
%TO.C,D62*%
X217600000Y-114100000D03*
X217600000Y-105900000D03*
%TD*%
D14*
%TO.C,SW62*%
X78263750Y-109537500D03*
D15*
X83343750Y-109537500D03*
D14*
X88423750Y-109537500D03*
D16*
X79533750Y-106997500D03*
X85883750Y-104457500D03*
%TD*%
D14*
%TO.C,SW65*%
X244951250Y-109537500D03*
D15*
X250031250Y-109537500D03*
D14*
X255111250Y-109537500D03*
D16*
X246221250Y-106997500D03*
X252571250Y-104457500D03*
%TD*%
D14*
%TO.C,SW14*%
X237807500Y-33337500D03*
D15*
X242887500Y-33337500D03*
D14*
X247967500Y-33337500D03*
D16*
X239077500Y-30797500D03*
X245427500Y-28257500D03*
%TD*%
D14*
%TO.C,SW27*%
X209232500Y-52387500D03*
D15*
X214312500Y-52387500D03*
D14*
X219392500Y-52387500D03*
D16*
X210502500Y-49847500D03*
X216852500Y-47307500D03*
%TD*%
D14*
%TO.C,SW3*%
X28257500Y-33337500D03*
D15*
X33337500Y-33337500D03*
D14*
X38417500Y-33337500D03*
D16*
X29527500Y-30797500D03*
X35877500Y-28257500D03*
%TD*%
D14*
%TO.C,SW35*%
X80645000Y-71437500D03*
D15*
X85725000Y-71437500D03*
D14*
X90805000Y-71437500D03*
D16*
X81915000Y-68897500D03*
X88265000Y-66357500D03*
%TD*%
D14*
%TO.C,SW9*%
X142557500Y-33337500D03*
D15*
X147637500Y-33337500D03*
D14*
X152717500Y-33337500D03*
D16*
X143827500Y-30797500D03*
X150177500Y-28257500D03*
%TD*%
D12*
%TO.C,LED56*%
X199450000Y-81915000D03*
X200550000Y-81915000D03*
X200550000Y-80085000D03*
X199450000Y-80085000D03*
%TD*%
D11*
%TO.C,C8*%
X90700000Y-63175000D03*
X90700000Y-60225000D03*
%TD*%
D12*
%TO.C,LED24*%
X165950000Y-43415000D03*
X167050000Y-43415000D03*
X167050000Y-41585000D03*
X165950000Y-41585000D03*
%TD*%
%TO.C,LED40*%
X175450000Y-62830000D03*
X176550000Y-62830000D03*
X176550000Y-61000000D03*
X175450000Y-61000000D03*
%TD*%
D14*
%TO.C,SW29*%
X247332500Y-52387500D03*
D15*
X252412500Y-52387500D03*
D14*
X257492500Y-52387500D03*
D16*
X248602500Y-49847500D03*
X254952500Y-47307500D03*
%TD*%
D12*
%TO.C,LED12*%
X242450000Y-24915000D03*
X243550000Y-24915000D03*
X243550000Y-23085000D03*
X242450000Y-23085000D03*
%TD*%
D13*
%TO.C,D68*%
X336500000Y-36100000D03*
X336500000Y-27900000D03*
%TD*%
D12*
%TO.C,LED34*%
X61450000Y-62830000D03*
X62550000Y-62830000D03*
X62550000Y-61000000D03*
X61450000Y-61000000D03*
%TD*%
D14*
%TO.C,SW50*%
X109220000Y-90487500D03*
D15*
X114300000Y-90487500D03*
D14*
X119380000Y-90487500D03*
D16*
X110490000Y-87947500D03*
X116840000Y-85407500D03*
%TD*%
D13*
%TO.C,D6*%
X119500000Y-37100000D03*
X119500000Y-28900000D03*
%TD*%
D12*
%TO.C,LED31*%
X320950000Y-43415000D03*
X322050000Y-43415000D03*
X322050000Y-41585000D03*
X320950000Y-41585000D03*
%TD*%
D13*
%TO.C,D60*%
X74500000Y-114100000D03*
X74500000Y-105900000D03*
%TD*%
D12*
%TO.C,LED71*%
X209400000Y-100500000D03*
X210500000Y-100500000D03*
X210500000Y-98670000D03*
X209400000Y-98670000D03*
%TD*%
%TO.C,LED3*%
X70910000Y-24915000D03*
X72010000Y-24915000D03*
X72010000Y-23085000D03*
X70910000Y-23085000D03*
%TD*%
%TO.C,LED78*%
X82780000Y-119430000D03*
X83880000Y-119430000D03*
X83880000Y-117600000D03*
X82780000Y-117600000D03*
%TD*%
D14*
%TO.C,SW23*%
X133032500Y-52387500D03*
D15*
X138112500Y-52387500D03*
D14*
X143192500Y-52387500D03*
D16*
X134302500Y-49847500D03*
X140652500Y-47307500D03*
%TD*%
D12*
%TO.C,LED85*%
X226000000Y-119330000D03*
X227100000Y-119330000D03*
X227100000Y-117500000D03*
X226000000Y-117500000D03*
%TD*%
D20*
%TO.C,Rot_Encoder_1*%
X350919000Y-33087500D03*
X339919000Y-33087500D03*
D21*
X342879000Y-40587500D03*
X347959000Y-40587500D03*
X345419000Y-40587500D03*
X342879000Y-26087500D03*
X347959000Y-26087500D03*
%TD*%
D13*
%TO.C,D21*%
X129000000Y-56100000D03*
X129000000Y-47900000D03*
%TD*%
D12*
%TO.C,LED67*%
X132800000Y-100830000D03*
X133900000Y-100830000D03*
X133900000Y-99000000D03*
X132800000Y-99000000D03*
%TD*%
D14*
%TO.C,SW53*%
X166370000Y-90487500D03*
D15*
X171450000Y-90487500D03*
D14*
X176530000Y-90487500D03*
D16*
X167640000Y-87947500D03*
X173990000Y-85407500D03*
%TD*%
D14*
%TO.C,SW26*%
X190182500Y-52387500D03*
D15*
X195262500Y-52387500D03*
D14*
X200342500Y-52387500D03*
D16*
X191452500Y-49847500D03*
X197802500Y-47307500D03*
%TD*%
D13*
%TO.C,D32*%
X57500000Y-75100000D03*
X57500000Y-66900000D03*
%TD*%
D12*
%TO.C,LED90*%
X345200000Y-119430000D03*
X346300000Y-119430000D03*
X346300000Y-117600000D03*
X345200000Y-117600000D03*
%TD*%
D13*
%TO.C,D59*%
X50500000Y-114100000D03*
X50500000Y-105900000D03*
%TD*%
D14*
%TO.C,SW11*%
X180657500Y-33337500D03*
D15*
X185737500Y-33337500D03*
D14*
X190817500Y-33337500D03*
D16*
X181927500Y-30797500D03*
X188277500Y-28257500D03*
%TD*%
D14*
%TO.C,SW64*%
X221138750Y-109537500D03*
D15*
X226218750Y-109537500D03*
D14*
X231298750Y-109537500D03*
D16*
X222408750Y-106997500D03*
X228758750Y-104457500D03*
%TD*%
D13*
%TO.C,D34*%
X96000000Y-75100000D03*
X96000000Y-66900000D03*
%TD*%
D14*
%TO.C,SW24*%
X152082500Y-52387500D03*
D15*
X157162500Y-52387500D03*
D14*
X162242500Y-52387500D03*
D16*
X153352500Y-49847500D03*
X159702500Y-47307500D03*
%TD*%
D14*
%TO.C,SW17*%
X316388750Y-33337500D03*
D15*
X321468750Y-33337500D03*
D14*
X326548750Y-33337500D03*
D16*
X317658750Y-30797500D03*
X324008750Y-28257500D03*
%TD*%
D12*
%TO.C,LED63*%
X61950000Y-100815000D03*
X63050000Y-100815000D03*
X63050000Y-98985000D03*
X61950000Y-98985000D03*
%TD*%
D13*
%TO.C,D12*%
X234000000Y-36100000D03*
X234000000Y-27900000D03*
%TD*%
D14*
%TO.C,SW54*%
X185420000Y-90487500D03*
D15*
X190500000Y-90487500D03*
D14*
X195580000Y-90487500D03*
D16*
X186690000Y-87947500D03*
X193040000Y-85407500D03*
%TD*%
D12*
%TO.C,LED77*%
X59000000Y-119400000D03*
X60100000Y-119400000D03*
X60100000Y-117570000D03*
X59000000Y-117570000D03*
%TD*%
D13*
%TO.C,D31*%
X31000000Y-75100000D03*
X31000000Y-66900000D03*
%TD*%
D12*
%TO.C,LED43*%
X232950000Y-62915000D03*
X234050000Y-62915000D03*
X234050000Y-61085000D03*
X232950000Y-61085000D03*
%TD*%
D13*
%TO.C,D45*%
X28400000Y-94800000D03*
X28400000Y-86600000D03*
%TD*%
%TO.C,D50*%
X143500000Y-95100000D03*
X143500000Y-86900000D03*
%TD*%
D12*
%TO.C,LED64*%
X76950000Y-100915000D03*
X78050000Y-100915000D03*
X78050000Y-99085000D03*
X76950000Y-99085000D03*
%TD*%
D13*
%TO.C,D58*%
X27000000Y-114100000D03*
X27000000Y-105900000D03*
%TD*%
%TO.C,D4*%
X81500000Y-37100000D03*
X81500000Y-28900000D03*
%TD*%
D14*
%TO.C,SW15*%
X256857500Y-33337500D03*
D15*
X261937500Y-33337500D03*
D14*
X267017500Y-33337500D03*
D16*
X258127500Y-30797500D03*
X264477500Y-28257500D03*
%TD*%
D11*
%TO.C,C5*%
X99700000Y-44175000D03*
X99700000Y-41225000D03*
%TD*%
D14*
%TO.C,SW61*%
X54451250Y-109537500D03*
D15*
X59531250Y-109537500D03*
D14*
X64611250Y-109537500D03*
D16*
X55721250Y-106997500D03*
X62071250Y-104457500D03*
%TD*%
D12*
%TO.C,LED74*%
X282900000Y-100830000D03*
X284000000Y-100830000D03*
X284000000Y-99000000D03*
X282900000Y-99000000D03*
%TD*%
D14*
%TO.C,SW12*%
X199707500Y-33337500D03*
D15*
X204787500Y-33337500D03*
D14*
X209867500Y-33337500D03*
D16*
X200977500Y-30797500D03*
X207327500Y-28257500D03*
%TD*%
D14*
%TO.C,SW32*%
X316388750Y-52387500D03*
D15*
X321468750Y-52387500D03*
D14*
X326548750Y-52387500D03*
D16*
X317658750Y-49847500D03*
X324008750Y-47307500D03*
%TD*%
D12*
%TO.C,LED76*%
X35500000Y-119330000D03*
X36600000Y-119330000D03*
X36600000Y-117500000D03*
X35500000Y-117500000D03*
%TD*%
%TO.C,LED88*%
X296950000Y-119330000D03*
X298050000Y-119330000D03*
X298050000Y-117500000D03*
X296950000Y-117500000D03*
%TD*%
%TO.C,LED52*%
X123450000Y-81915000D03*
X124550000Y-81915000D03*
X124550000Y-80085000D03*
X123450000Y-80085000D03*
%TD*%
%TO.C,LED44*%
X251950000Y-62915000D03*
X253050000Y-62915000D03*
X253050000Y-61085000D03*
X251950000Y-61085000D03*
%TD*%
D14*
%TO.C,SW19*%
X56832500Y-52387500D03*
D15*
X61912500Y-52387500D03*
D14*
X66992500Y-52387500D03*
D16*
X58102500Y-49847500D03*
X64452500Y-47307500D03*
%TD*%
D14*
%TO.C,SW41*%
X194945000Y-71437500D03*
D15*
X200025000Y-71437500D03*
D14*
X205105000Y-71437500D03*
D16*
X196215000Y-68897500D03*
X202565000Y-66357500D03*
%TD*%
D14*
%TO.C,SW16*%
X285432500Y-33337500D03*
D15*
X290512500Y-33337500D03*
D14*
X295592500Y-33337500D03*
D16*
X286702500Y-30797500D03*
X293052500Y-28257500D03*
%TD*%
D13*
%TO.C,D1*%
X24500000Y-37100000D03*
X24500000Y-28900000D03*
%TD*%
D14*
%TO.C,SW10*%
X161607500Y-33337500D03*
D15*
X166687500Y-33337500D03*
D14*
X171767500Y-33337500D03*
D16*
X162877500Y-30797500D03*
X169227500Y-28257500D03*
%TD*%
D13*
%TO.C,D13*%
X253000000Y-36100000D03*
X253000000Y-27900000D03*
%TD*%
%TO.C,D10*%
X196000000Y-36100000D03*
X196000000Y-27900000D03*
%TD*%
D14*
%TO.C,SW20*%
X75882500Y-52387500D03*
D15*
X80962500Y-52387500D03*
D14*
X86042500Y-52387500D03*
D16*
X77152500Y-49847500D03*
X83502500Y-47307500D03*
%TD*%
D12*
%TO.C,LED8*%
X165935000Y-24915000D03*
X167035000Y-24915000D03*
X167035000Y-23085000D03*
X165935000Y-23085000D03*
%TD*%
%TO.C,LED54*%
X161450000Y-81915000D03*
X162550000Y-81915000D03*
X162550000Y-80085000D03*
X161450000Y-80085000D03*
%TD*%
%TO.C,LED38*%
X136950000Y-62830000D03*
X138050000Y-62830000D03*
X138050000Y-61000000D03*
X136950000Y-61000000D03*
%TD*%
%TO.C,LED72*%
X228400000Y-100830000D03*
X229500000Y-100830000D03*
X229500000Y-99000000D03*
X228400000Y-99000000D03*
%TD*%
%TO.C,LED25*%
X185450000Y-43415000D03*
X186550000Y-43415000D03*
X186550000Y-41585000D03*
X185450000Y-41585000D03*
%TD*%
%TO.C,LED1*%
X32900000Y-24915000D03*
X34000000Y-24915000D03*
X34000000Y-23085000D03*
X32900000Y-23085000D03*
%TD*%
D13*
%TO.C,D65*%
X288500000Y-114100000D03*
X288500000Y-105900000D03*
%TD*%
D12*
%TO.C,LED21*%
X108950000Y-43415000D03*
X110050000Y-43415000D03*
X110050000Y-41585000D03*
X108950000Y-41585000D03*
%TD*%
D14*
%TO.C,SW68*%
X316388750Y-109537500D03*
D15*
X321468750Y-109537500D03*
D14*
X326548750Y-109537500D03*
D16*
X317658750Y-106997500D03*
X324008750Y-104457500D03*
%TD*%
D12*
%TO.C,LED39*%
X156450000Y-62830000D03*
X157550000Y-62830000D03*
X157550000Y-61000000D03*
X156450000Y-61000000D03*
%TD*%
D11*
%TO.C,C15*%
X185600000Y-63175000D03*
X185600000Y-60225000D03*
%TD*%
D14*
%TO.C,SW47*%
X40163750Y-90487500D03*
D15*
X45243750Y-90487500D03*
D14*
X50323750Y-90487500D03*
D16*
X41433750Y-87947500D03*
X47783750Y-85407500D03*
%TD*%
D13*
%TO.C,D18*%
X72000000Y-56100000D03*
X72000000Y-47900000D03*
%TD*%
D12*
%TO.C,LED92*%
X344085000Y-77950000D03*
X344085000Y-79050000D03*
X345915000Y-79050000D03*
X345915000Y-77950000D03*
%TD*%
%TO.C,LED50*%
X85350000Y-82000000D03*
X86450000Y-82000000D03*
X86450000Y-80170000D03*
X85350000Y-80170000D03*
%TD*%
D13*
%TO.C,D16*%
X29500000Y-56100000D03*
X29500000Y-47900000D03*
%TD*%
D11*
%TO.C,C11*%
X189500000Y-82275000D03*
X189500000Y-79325000D03*
%TD*%
D12*
%TO.C,LED16*%
X344950000Y-24915000D03*
X346050000Y-24915000D03*
X346050000Y-23085000D03*
X344950000Y-23085000D03*
%TD*%
D13*
%TO.C,D26*%
X224500000Y-56100000D03*
X224500000Y-47900000D03*
%TD*%
D18*
%TO.C,REF\u002A\u002A*%
X271430750Y-83502500D03*
D19*
X271430750Y-98712500D03*
D18*
X295306750Y-83502500D03*
D19*
X295306750Y-98712500D03*
%TD*%
D12*
%TO.C,LED82*%
X154450000Y-119415000D03*
X155550000Y-119415000D03*
X155550000Y-117585000D03*
X154450000Y-117585000D03*
%TD*%
%TO.C,LED41*%
X193900000Y-62830000D03*
X195000000Y-62830000D03*
X195000000Y-61000000D03*
X193900000Y-61000000D03*
%TD*%
%TO.C,LED45*%
X270750000Y-62315000D03*
X271850000Y-62315000D03*
X271850000Y-60485000D03*
X270750000Y-60485000D03*
%TD*%
D14*
%TO.C,SW42*%
X213995000Y-71437500D03*
D15*
X219075000Y-71437500D03*
D14*
X224155000Y-71437500D03*
D16*
X215265000Y-68897500D03*
X221615000Y-66357500D03*
%TD*%
D22*
%TO.C,12pF_C1*%
X168500000Y-114025000D03*
X168500000Y-116975000D03*
%TD*%
D14*
%TO.C,SW28*%
X228282500Y-52387500D03*
D15*
X233362500Y-52387500D03*
D14*
X238442500Y-52387500D03*
D16*
X229552500Y-49847500D03*
X235902500Y-47307500D03*
%TD*%
D23*
%TO.C,PB1*%
X209400000Y-110125000D03*
X215400000Y-110125000D03*
X209400000Y-113875000D03*
X215400000Y-113875000D03*
%TD*%
D18*
%TO.C,REF\u002A\u002A*%
X276193250Y-64452500D03*
D19*
X276193250Y-79662500D03*
D18*
X300069250Y-64452500D03*
D19*
X300069250Y-79662500D03*
%TD*%
D13*
%TO.C,D3*%
X62500000Y-37100000D03*
X62500000Y-28900000D03*
%TD*%
%TO.C,D66*%
X312500000Y-114100000D03*
X312500000Y-105900000D03*
%TD*%
D24*
%TO.C,J1*%
X21180000Y-39000000D03*
X21180000Y-47650000D03*
D25*
X17000000Y-47650000D03*
X17000000Y-39000000D03*
D26*
X21948000Y-39975000D03*
X21948000Y-40775000D03*
X21948000Y-42075000D03*
X21948000Y-43075000D03*
X21948000Y-43575000D03*
X21948000Y-44574500D03*
X21948000Y-45875000D03*
X21948000Y-46675000D03*
X21948000Y-46375000D03*
X21948000Y-45575000D03*
X21948000Y-45075000D03*
X21948000Y-44075000D03*
X21948000Y-42575000D03*
X21948000Y-41575000D03*
X21948000Y-41075000D03*
X21948000Y-40275000D03*
%TD*%
D12*
%TO.C,LED84*%
X209900000Y-107430000D03*
X211000000Y-107430000D03*
X211000000Y-105600000D03*
X209900000Y-105600000D03*
%TD*%
D14*
%TO.C,SW34*%
X61595000Y-71437500D03*
D15*
X66675000Y-71437500D03*
D14*
X71755000Y-71437500D03*
D16*
X62865000Y-68897500D03*
X69215000Y-66357500D03*
%TD*%
D12*
%TO.C,LED27*%
X220210000Y-43415000D03*
X221310000Y-43415000D03*
X221310000Y-41585000D03*
X220210000Y-41585000D03*
%TD*%
D14*
%TO.C,SW18*%
X33020000Y-52387500D03*
D15*
X38100000Y-52387500D03*
D14*
X43180000Y-52387500D03*
D16*
X34290000Y-49847500D03*
X40640000Y-47307500D03*
%TD*%
D12*
%TO.C,LED9*%
X184940000Y-24915000D03*
X186040000Y-24915000D03*
X186040000Y-23085000D03*
X184940000Y-23085000D03*
%TD*%
D13*
%TO.C,D40*%
X210000000Y-75100000D03*
X210000000Y-66900000D03*
%TD*%
%TO.C,D67*%
X336500000Y-114100000D03*
X336500000Y-105900000D03*
%TD*%
%TO.C,D39*%
X191000000Y-75100000D03*
X191000000Y-66900000D03*
%TD*%
D12*
%TO.C,LED33*%
X37500000Y-62830000D03*
X38600000Y-62830000D03*
X38600000Y-61000000D03*
X37500000Y-61000000D03*
%TD*%
D14*
%TO.C,SW31*%
X290195000Y-52387500D03*
D15*
X295275000Y-52387500D03*
D14*
X300355000Y-52387500D03*
D16*
X291465000Y-49847500D03*
X297815000Y-47307500D03*
%TD*%
D12*
%TO.C,LED7*%
X146930000Y-24915000D03*
X148030000Y-24915000D03*
X148030000Y-23085000D03*
X146930000Y-23085000D03*
%TD*%
D14*
%TO.C,SW45*%
X283051250Y-71437500D03*
D15*
X288131250Y-71437500D03*
D14*
X293211250Y-71437500D03*
D16*
X284321250Y-68897500D03*
X290671250Y-66357500D03*
%TD*%
D13*
%TO.C,D57*%
X312500000Y-95100000D03*
X312500000Y-86900000D03*
%TD*%
D12*
%TO.C,LED11*%
X222950000Y-24915000D03*
X224050000Y-24915000D03*
X224050000Y-23085000D03*
X222950000Y-23085000D03*
%TD*%
%TO.C,LED22*%
X127950000Y-43415000D03*
X129050000Y-43415000D03*
X129050000Y-41585000D03*
X127950000Y-41585000D03*
%TD*%
D14*
%TO.C,SW58*%
X278288750Y-90487500D03*
D15*
X283368750Y-90487500D03*
D14*
X288448750Y-90487500D03*
D16*
X279558750Y-87947500D03*
X285908750Y-85407500D03*
%TD*%
D27*
%TO.C,5.1K_R1*%
X27262500Y-47300000D03*
X24337500Y-47300000D03*
%TD*%
D13*
%TO.C,D37*%
X153000000Y-75100000D03*
X153000000Y-66900000D03*
%TD*%
%TO.C,D46*%
X67000000Y-95100000D03*
X67000000Y-86900000D03*
%TD*%
D12*
%TO.C,LED89*%
X320950000Y-119430000D03*
X322050000Y-119430000D03*
X322050000Y-117600000D03*
X320950000Y-117600000D03*
%TD*%
D14*
%TO.C,SW6*%
X85407500Y-33337500D03*
D15*
X90487500Y-33337500D03*
D14*
X95567500Y-33337500D03*
D16*
X86677500Y-30797500D03*
X93027500Y-28257500D03*
%TD*%
D12*
%TO.C,LED79*%
X97950000Y-110415000D03*
X99050000Y-110415000D03*
X99050000Y-108585000D03*
X97950000Y-108585000D03*
%TD*%
D13*
%TO.C,D33*%
X77000000Y-75100000D03*
X77000000Y-66900000D03*
%TD*%
D12*
%TO.C,LED93*%
X344085000Y-64450000D03*
X344085000Y-65550000D03*
X345915000Y-65550000D03*
X345915000Y-64450000D03*
%TD*%
D13*
%TO.C,D8*%
X157500000Y-37100000D03*
X157500000Y-28900000D03*
%TD*%
D14*
%TO.C,SW22*%
X113982500Y-52387500D03*
D15*
X119062500Y-52387500D03*
D14*
X124142500Y-52387500D03*
D16*
X115252500Y-49847500D03*
X121602500Y-47307500D03*
%TD*%
D14*
%TO.C,SW69*%
X340201250Y-109537500D03*
D15*
X345281250Y-109537500D03*
D14*
X350361250Y-109537500D03*
D16*
X341471250Y-106997500D03*
X347821250Y-104457500D03*
%TD*%
D18*
%TO.C,REF\u002A\u002A*%
X278574500Y-26352500D03*
D19*
X278574500Y-41562500D03*
D18*
X302450500Y-26352500D03*
D19*
X302450500Y-41562500D03*
%TD*%
D14*
%TO.C,SW7*%
X104457500Y-33337500D03*
D15*
X109537500Y-33337500D03*
D14*
X114617500Y-33337500D03*
D16*
X105727500Y-30797500D03*
X112077500Y-28257500D03*
%TD*%
D12*
%TO.C,LED70*%
X191400000Y-100500000D03*
X192500000Y-100500000D03*
X192500000Y-98670000D03*
X191400000Y-98670000D03*
%TD*%
%TO.C,LED30*%
X292450000Y-43415000D03*
X293550000Y-43415000D03*
X293550000Y-41585000D03*
X292450000Y-41585000D03*
%TD*%
%TO.C,LED86*%
X249450000Y-119430000D03*
X250550000Y-119430000D03*
X250550000Y-117600000D03*
X249450000Y-117600000D03*
%TD*%
D14*
%TO.C,SW51*%
X128270000Y-90487500D03*
D15*
X133350000Y-90487500D03*
D14*
X138430000Y-90487500D03*
D16*
X129540000Y-87947500D03*
X135890000Y-85407500D03*
%TD*%
D11*
%TO.C,12pF_C2*%
X177000000Y-116975000D03*
X177000000Y-114025000D03*
%TD*%
D13*
%TO.C,D36*%
X134000000Y-75100000D03*
X134000000Y-66900000D03*
%TD*%
%TO.C,D54*%
X219500000Y-95100000D03*
X219500000Y-86900000D03*
%TD*%
D12*
%TO.C,LED42*%
X213450000Y-62830000D03*
X214550000Y-62830000D03*
X214550000Y-61000000D03*
X213450000Y-61000000D03*
%TD*%
%TO.C,LED47*%
X320950000Y-62415000D03*
X322050000Y-62415000D03*
X322050000Y-60585000D03*
X320950000Y-60585000D03*
%TD*%
%TO.C,LED35*%
X80170000Y-62830000D03*
X81270000Y-62830000D03*
X81270000Y-61000000D03*
X80170000Y-61000000D03*
%TD*%
M02*
