%TF.GenerationSoftware,KiCad,Pcbnew,9.0.2*%
%TF.CreationDate,2025-07-03T22:06:11+05:30*%
%TF.ProjectId,KeeBoard,4b656542-6f61-4726-942e-6b696361645f,rev?*%
%TF.SameCoordinates,Original*%
%TF.FileFunction,Paste,Bot*%
%TF.FilePolarity,Positive*%
%FSLAX46Y46*%
G04 Gerber Fmt 4.6, Leading zero omitted, Abs format (unit mm)*
G04 Created by KiCad (PCBNEW 9.0.2) date 2025-07-03 22:06:11*
%MOMM*%
%LPD*%
G01*
G04 APERTURE LIST*
G04 Aperture macros list*
%AMRoundRect*
0 Rectangle with rounded corners*
0 $1 Rounding radius*
0 $2 $3 $4 $5 $6 $7 $8 $9 X,Y pos of 4 corners*
0 Add a 4 corners polygon primitive as box body*
4,1,4,$2,$3,$4,$5,$6,$7,$8,$9,$2,$3,0*
0 Add four circle primitives for the rounded corners*
1,1,$1+$1,$2,$3*
1,1,$1+$1,$4,$5*
1,1,$1+$1,$6,$7*
1,1,$1+$1,$8,$9*
0 Add four rect primitives between the rounded corners*
20,1,$1+$1,$2,$3,$4,$5,0*
20,1,$1+$1,$4,$5,$6,$7,0*
20,1,$1+$1,$6,$7,$8,$9,0*
20,1,$1+$1,$8,$9,$2,$3,0*%
G04 Aperture macros list end*
%ADD10O,0.588000X2.045000*%
%ADD11R,2.500000X2.300000*%
%ADD12RoundRect,0.250000X-0.625000X0.312500X-0.625000X-0.312500X0.625000X-0.312500X0.625000X0.312500X0*%
%ADD13RoundRect,0.250000X-0.325000X-0.650000X0.325000X-0.650000X0.325000X0.650000X-0.325000X0.650000X0*%
%ADD14RoundRect,0.250000X0.650000X-0.325000X0.650000X0.325000X-0.650000X0.325000X-0.650000X-0.325000X0*%
%ADD15O,1.684000X0.448000*%
%ADD16O,0.448000X1.684000*%
%ADD17R,1.400000X1.200000*%
%ADD18RoundRect,0.250000X0.312500X0.625000X-0.312500X0.625000X-0.312500X-0.625000X0.312500X-0.625000X0*%
%ADD19RoundRect,0.250000X-0.650000X0.325000X-0.650000X-0.325000X0.650000X-0.325000X0.650000X0.325000X0*%
G04 APERTURE END LIST*
D10*
%TO.C,U3*%
X27705000Y-49872500D03*
X26435000Y-49872500D03*
X25165000Y-49872500D03*
X23895000Y-49872500D03*
X23895000Y-44327500D03*
X25165000Y-44327500D03*
X26435000Y-44327500D03*
X27705000Y-44327500D03*
%TD*%
D11*
%TO.C,Main_c6*%
X331500000Y-104600000D03*
X331500000Y-98400000D03*
%TD*%
%TO.C,Main_c4*%
X284500000Y-62200000D03*
X284500000Y-56000000D03*
%TD*%
D12*
%TO.C,5.1K_R2*%
X17800000Y-41637500D03*
X17800000Y-44562500D03*
%TD*%
D13*
%TO.C,C16*%
X191525000Y-104000000D03*
X194475000Y-104000000D03*
%TD*%
D12*
%TO.C,R1*%
X198500000Y-113537500D03*
X198500000Y-116462500D03*
%TD*%
D14*
%TO.C,C20*%
X237600000Y-118075000D03*
X237600000Y-115125000D03*
%TD*%
D15*
%TO.C,U2*%
X191242000Y-106000000D03*
X191242000Y-106800000D03*
X191242000Y-107600000D03*
X191242000Y-108400000D03*
X191242000Y-109200000D03*
X191242000Y-110000000D03*
X191242000Y-110800000D03*
X191242000Y-111600000D03*
X191242000Y-112400000D03*
X191242000Y-113200000D03*
X191242000Y-114000000D03*
D16*
X189500000Y-115742000D03*
X188700000Y-115742000D03*
X187900000Y-115742000D03*
X187100000Y-115742000D03*
X186300000Y-115742000D03*
X185500000Y-115742000D03*
X184700000Y-115742000D03*
X183900000Y-115742000D03*
X183100000Y-115742000D03*
X182300000Y-115742000D03*
X181500000Y-115742000D03*
D15*
X179758000Y-114000000D03*
X179758000Y-113200000D03*
X179758000Y-112400000D03*
X179758000Y-111600000D03*
X179758000Y-110800000D03*
X179758000Y-110000000D03*
X179758000Y-109200000D03*
X179758000Y-108400000D03*
X179758000Y-107600000D03*
X179758000Y-106800000D03*
X179758000Y-106000000D03*
D16*
X181500000Y-104258000D03*
X182300000Y-104258000D03*
X183100000Y-104258000D03*
X183900000Y-104258000D03*
X184700000Y-104258000D03*
X185500000Y-104258000D03*
X186300000Y-104258000D03*
X187100000Y-104258000D03*
X187900000Y-104258000D03*
X188700000Y-104258000D03*
X189500000Y-104258000D03*
%TD*%
D11*
%TO.C,Main_c3*%
X307500000Y-46600000D03*
X307500000Y-40400000D03*
%TD*%
D17*
%TO.C,X1*%
X171400000Y-114650000D03*
X173600000Y-114650000D03*
X173600000Y-116350000D03*
X171400000Y-116350000D03*
%TD*%
D11*
%TO.C,Main_c5*%
X303200000Y-92900000D03*
X303200000Y-86700000D03*
%TD*%
%TO.C,Main_c7*%
X332000000Y-118600000D03*
X332000000Y-112400000D03*
%TD*%
D18*
%TO.C,R2*%
X198462500Y-109500000D03*
X195537500Y-109500000D03*
%TD*%
D11*
%TO.C,Main_c2*%
X332500000Y-30100000D03*
X332500000Y-23900000D03*
%TD*%
D18*
%TO.C,R3*%
X198462500Y-107100000D03*
X195537500Y-107100000D03*
%TD*%
D19*
%TO.C,C18*%
X176500000Y-109025000D03*
X176500000Y-111975000D03*
%TD*%
D11*
%TO.C,Main_C1*%
X20000000Y-31100000D03*
X20000000Y-24900000D03*
%TD*%
M02*
