%TF.GenerationSoftware,KiCad,Pcbnew,9.0.2*%
%TF.CreationDate,2025-07-03T22:06:11+05:30*%
%TF.ProjectId,KeeBoard,4b656542-6f61-4726-942e-6b696361645f,rev?*%
%TF.SameCoordinates,Original*%
%TF.FileFunction,Legend,Bot*%
%TF.FilePolarity,Positive*%
%FSLAX46Y46*%
G04 Gerber Fmt 4.6, Leading zero omitted, Abs format (unit mm)*
G04 Created by KiCad (PCBNEW 9.0.2) date 2025-07-03 22:06:11*
%MOMM*%
%LPD*%
G01*
G04 APERTURE LIST*
%ADD10C,0.150000*%
%ADD11C,0.254000*%
%ADD12C,0.125000*%
%ADD13C,0.152500*%
%ADD14C,0.300000*%
%ADD15C,0.200000*%
%ADD16C,0.120000*%
G04 APERTURE END LIST*
D10*
X26566904Y-46527319D02*
X26566904Y-47336842D01*
X26566904Y-47336842D02*
X26519285Y-47432080D01*
X26519285Y-47432080D02*
X26471666Y-47479700D01*
X26471666Y-47479700D02*
X26376428Y-47527319D01*
X26376428Y-47527319D02*
X26185952Y-47527319D01*
X26185952Y-47527319D02*
X26090714Y-47479700D01*
X26090714Y-47479700D02*
X26043095Y-47432080D01*
X26043095Y-47432080D02*
X25995476Y-47336842D01*
X25995476Y-47336842D02*
X25995476Y-46527319D01*
X25614523Y-46527319D02*
X24995476Y-46527319D01*
X24995476Y-46527319D02*
X25328809Y-46908271D01*
X25328809Y-46908271D02*
X25185952Y-46908271D01*
X25185952Y-46908271D02*
X25090714Y-46955890D01*
X25090714Y-46955890D02*
X25043095Y-47003509D01*
X25043095Y-47003509D02*
X24995476Y-47098747D01*
X24995476Y-47098747D02*
X24995476Y-47336842D01*
X24995476Y-47336842D02*
X25043095Y-47432080D01*
X25043095Y-47432080D02*
X25090714Y-47479700D01*
X25090714Y-47479700D02*
X25185952Y-47527319D01*
X25185952Y-47527319D02*
X25471666Y-47527319D01*
X25471666Y-47527319D02*
X25566904Y-47479700D01*
X25566904Y-47479700D02*
X25614523Y-47432080D01*
D11*
X334249318Y-98292380D02*
X332979318Y-98292380D01*
X332979318Y-98292380D02*
X333886461Y-98715714D01*
X333886461Y-98715714D02*
X332979318Y-99139047D01*
X332979318Y-99139047D02*
X334249318Y-99139047D01*
X334249318Y-100288095D02*
X333584080Y-100288095D01*
X333584080Y-100288095D02*
X333463127Y-100227619D01*
X333463127Y-100227619D02*
X333402651Y-100106667D01*
X333402651Y-100106667D02*
X333402651Y-99864762D01*
X333402651Y-99864762D02*
X333463127Y-99743809D01*
X334188842Y-100288095D02*
X334249318Y-100167143D01*
X334249318Y-100167143D02*
X334249318Y-99864762D01*
X334249318Y-99864762D02*
X334188842Y-99743809D01*
X334188842Y-99743809D02*
X334067889Y-99683333D01*
X334067889Y-99683333D02*
X333946937Y-99683333D01*
X333946937Y-99683333D02*
X333825984Y-99743809D01*
X333825984Y-99743809D02*
X333765508Y-99864762D01*
X333765508Y-99864762D02*
X333765508Y-100167143D01*
X333765508Y-100167143D02*
X333705032Y-100288095D01*
X334249318Y-100892857D02*
X333402651Y-100892857D01*
X332979318Y-100892857D02*
X333039794Y-100832381D01*
X333039794Y-100832381D02*
X333100270Y-100892857D01*
X333100270Y-100892857D02*
X333039794Y-100953334D01*
X333039794Y-100953334D02*
X332979318Y-100892857D01*
X332979318Y-100892857D02*
X333100270Y-100892857D01*
X333402651Y-101497619D02*
X334249318Y-101497619D01*
X333523603Y-101497619D02*
X333463127Y-101558096D01*
X333463127Y-101558096D02*
X333402651Y-101679048D01*
X333402651Y-101679048D02*
X333402651Y-101860477D01*
X333402651Y-101860477D02*
X333463127Y-101981429D01*
X333463127Y-101981429D02*
X333584080Y-102041905D01*
X333584080Y-102041905D02*
X334249318Y-102041905D01*
X334370270Y-102344287D02*
X334370270Y-103311906D01*
X334188842Y-104158572D02*
X334249318Y-104037620D01*
X334249318Y-104037620D02*
X334249318Y-103795715D01*
X334249318Y-103795715D02*
X334188842Y-103674763D01*
X334188842Y-103674763D02*
X334128365Y-103614286D01*
X334128365Y-103614286D02*
X334007413Y-103553810D01*
X334007413Y-103553810D02*
X333644556Y-103553810D01*
X333644556Y-103553810D02*
X333523603Y-103614286D01*
X333523603Y-103614286D02*
X333463127Y-103674763D01*
X333463127Y-103674763D02*
X333402651Y-103795715D01*
X333402651Y-103795715D02*
X333402651Y-104037620D01*
X333402651Y-104037620D02*
X333463127Y-104158572D01*
X332979318Y-105247143D02*
X332979318Y-105005238D01*
X332979318Y-105005238D02*
X333039794Y-104884286D01*
X333039794Y-104884286D02*
X333100270Y-104823810D01*
X333100270Y-104823810D02*
X333281699Y-104702857D01*
X333281699Y-104702857D02*
X333523603Y-104642381D01*
X333523603Y-104642381D02*
X334007413Y-104642381D01*
X334007413Y-104642381D02*
X334128365Y-104702857D01*
X334128365Y-104702857D02*
X334188842Y-104763334D01*
X334188842Y-104763334D02*
X334249318Y-104884286D01*
X334249318Y-104884286D02*
X334249318Y-105126191D01*
X334249318Y-105126191D02*
X334188842Y-105247143D01*
X334188842Y-105247143D02*
X334128365Y-105307619D01*
X334128365Y-105307619D02*
X334007413Y-105368096D01*
X334007413Y-105368096D02*
X333705032Y-105368096D01*
X333705032Y-105368096D02*
X333584080Y-105307619D01*
X333584080Y-105307619D02*
X333523603Y-105247143D01*
X333523603Y-105247143D02*
X333463127Y-105126191D01*
X333463127Y-105126191D02*
X333463127Y-104884286D01*
X333463127Y-104884286D02*
X333523603Y-104763334D01*
X333523603Y-104763334D02*
X333584080Y-104702857D01*
X333584080Y-104702857D02*
X333705032Y-104642381D01*
X287249318Y-55892380D02*
X285979318Y-55892380D01*
X285979318Y-55892380D02*
X286886461Y-56315714D01*
X286886461Y-56315714D02*
X285979318Y-56739047D01*
X285979318Y-56739047D02*
X287249318Y-56739047D01*
X287249318Y-57888095D02*
X286584080Y-57888095D01*
X286584080Y-57888095D02*
X286463127Y-57827619D01*
X286463127Y-57827619D02*
X286402651Y-57706667D01*
X286402651Y-57706667D02*
X286402651Y-57464762D01*
X286402651Y-57464762D02*
X286463127Y-57343809D01*
X287188842Y-57888095D02*
X287249318Y-57767143D01*
X287249318Y-57767143D02*
X287249318Y-57464762D01*
X287249318Y-57464762D02*
X287188842Y-57343809D01*
X287188842Y-57343809D02*
X287067889Y-57283333D01*
X287067889Y-57283333D02*
X286946937Y-57283333D01*
X286946937Y-57283333D02*
X286825984Y-57343809D01*
X286825984Y-57343809D02*
X286765508Y-57464762D01*
X286765508Y-57464762D02*
X286765508Y-57767143D01*
X286765508Y-57767143D02*
X286705032Y-57888095D01*
X287249318Y-58492857D02*
X286402651Y-58492857D01*
X285979318Y-58492857D02*
X286039794Y-58432381D01*
X286039794Y-58432381D02*
X286100270Y-58492857D01*
X286100270Y-58492857D02*
X286039794Y-58553334D01*
X286039794Y-58553334D02*
X285979318Y-58492857D01*
X285979318Y-58492857D02*
X286100270Y-58492857D01*
X286402651Y-59097619D02*
X287249318Y-59097619D01*
X286523603Y-59097619D02*
X286463127Y-59158096D01*
X286463127Y-59158096D02*
X286402651Y-59279048D01*
X286402651Y-59279048D02*
X286402651Y-59460477D01*
X286402651Y-59460477D02*
X286463127Y-59581429D01*
X286463127Y-59581429D02*
X286584080Y-59641905D01*
X286584080Y-59641905D02*
X287249318Y-59641905D01*
X287370270Y-59944287D02*
X287370270Y-60911906D01*
X287188842Y-61758572D02*
X287249318Y-61637620D01*
X287249318Y-61637620D02*
X287249318Y-61395715D01*
X287249318Y-61395715D02*
X287188842Y-61274763D01*
X287188842Y-61274763D02*
X287128365Y-61214286D01*
X287128365Y-61214286D02*
X287007413Y-61153810D01*
X287007413Y-61153810D02*
X286644556Y-61153810D01*
X286644556Y-61153810D02*
X286523603Y-61214286D01*
X286523603Y-61214286D02*
X286463127Y-61274763D01*
X286463127Y-61274763D02*
X286402651Y-61395715D01*
X286402651Y-61395715D02*
X286402651Y-61637620D01*
X286402651Y-61637620D02*
X286463127Y-61758572D01*
X286402651Y-62847143D02*
X287249318Y-62847143D01*
X285918842Y-62544762D02*
X286825984Y-62242381D01*
X286825984Y-62242381D02*
X286825984Y-63028572D01*
D12*
X15663595Y-41933334D02*
X15663595Y-41695239D01*
X15663595Y-41695239D02*
X16044547Y-41671430D01*
X16044547Y-41671430D02*
X16006452Y-41695239D01*
X16006452Y-41695239D02*
X15968357Y-41742858D01*
X15968357Y-41742858D02*
X15968357Y-41861906D01*
X15968357Y-41861906D02*
X16006452Y-41909525D01*
X16006452Y-41909525D02*
X16044547Y-41933334D01*
X16044547Y-41933334D02*
X16120738Y-41957144D01*
X16120738Y-41957144D02*
X16311214Y-41957144D01*
X16311214Y-41957144D02*
X16387404Y-41933334D01*
X16387404Y-41933334D02*
X16425500Y-41909525D01*
X16425500Y-41909525D02*
X16463595Y-41861906D01*
X16463595Y-41861906D02*
X16463595Y-41742858D01*
X16463595Y-41742858D02*
X16425500Y-41695239D01*
X16425500Y-41695239D02*
X16387404Y-41671430D01*
X16387404Y-42171429D02*
X16425500Y-42195239D01*
X16425500Y-42195239D02*
X16463595Y-42171429D01*
X16463595Y-42171429D02*
X16425500Y-42147620D01*
X16425500Y-42147620D02*
X16387404Y-42171429D01*
X16387404Y-42171429D02*
X16463595Y-42171429D01*
X16463595Y-42671429D02*
X16463595Y-42385715D01*
X16463595Y-42528572D02*
X15663595Y-42528572D01*
X15663595Y-42528572D02*
X15777880Y-42480953D01*
X15777880Y-42480953D02*
X15854071Y-42433334D01*
X15854071Y-42433334D02*
X15892166Y-42385715D01*
X16463595Y-42885714D02*
X15663595Y-42885714D01*
X16463595Y-43171428D02*
X16006452Y-42957143D01*
X15663595Y-43171428D02*
X16120738Y-42885714D01*
X16539785Y-43266667D02*
X16539785Y-43647619D01*
X16463595Y-44052380D02*
X16082642Y-43885714D01*
X16463595Y-43766666D02*
X15663595Y-43766666D01*
X15663595Y-43766666D02*
X15663595Y-43957142D01*
X15663595Y-43957142D02*
X15701690Y-44004761D01*
X15701690Y-44004761D02*
X15739785Y-44028571D01*
X15739785Y-44028571D02*
X15815976Y-44052380D01*
X15815976Y-44052380D02*
X15930261Y-44052380D01*
X15930261Y-44052380D02*
X16006452Y-44028571D01*
X16006452Y-44028571D02*
X16044547Y-44004761D01*
X16044547Y-44004761D02*
X16082642Y-43957142D01*
X16082642Y-43957142D02*
X16082642Y-43766666D01*
X15739785Y-44242857D02*
X15701690Y-44266666D01*
X15701690Y-44266666D02*
X15663595Y-44314285D01*
X15663595Y-44314285D02*
X15663595Y-44433333D01*
X15663595Y-44433333D02*
X15701690Y-44480952D01*
X15701690Y-44480952D02*
X15739785Y-44504761D01*
X15739785Y-44504761D02*
X15815976Y-44528571D01*
X15815976Y-44528571D02*
X15892166Y-44528571D01*
X15892166Y-44528571D02*
X16006452Y-44504761D01*
X16006452Y-44504761D02*
X16463595Y-44219047D01*
X16463595Y-44219047D02*
X16463595Y-44528571D01*
D10*
X193742857Y-102559580D02*
X193790476Y-102607200D01*
X193790476Y-102607200D02*
X193933333Y-102654819D01*
X193933333Y-102654819D02*
X194028571Y-102654819D01*
X194028571Y-102654819D02*
X194171428Y-102607200D01*
X194171428Y-102607200D02*
X194266666Y-102511961D01*
X194266666Y-102511961D02*
X194314285Y-102416723D01*
X194314285Y-102416723D02*
X194361904Y-102226247D01*
X194361904Y-102226247D02*
X194361904Y-102083390D01*
X194361904Y-102083390D02*
X194314285Y-101892914D01*
X194314285Y-101892914D02*
X194266666Y-101797676D01*
X194266666Y-101797676D02*
X194171428Y-101702438D01*
X194171428Y-101702438D02*
X194028571Y-101654819D01*
X194028571Y-101654819D02*
X193933333Y-101654819D01*
X193933333Y-101654819D02*
X193790476Y-101702438D01*
X193790476Y-101702438D02*
X193742857Y-101750057D01*
X192790476Y-102654819D02*
X193361904Y-102654819D01*
X193076190Y-102654819D02*
X193076190Y-101654819D01*
X193076190Y-101654819D02*
X193171428Y-101797676D01*
X193171428Y-101797676D02*
X193266666Y-101892914D01*
X193266666Y-101892914D02*
X193361904Y-101940533D01*
X191933333Y-101654819D02*
X192123809Y-101654819D01*
X192123809Y-101654819D02*
X192219047Y-101702438D01*
X192219047Y-101702438D02*
X192266666Y-101750057D01*
X192266666Y-101750057D02*
X192361904Y-101892914D01*
X192361904Y-101892914D02*
X192409523Y-102083390D01*
X192409523Y-102083390D02*
X192409523Y-102464342D01*
X192409523Y-102464342D02*
X192361904Y-102559580D01*
X192361904Y-102559580D02*
X192314285Y-102607200D01*
X192314285Y-102607200D02*
X192219047Y-102654819D01*
X192219047Y-102654819D02*
X192028571Y-102654819D01*
X192028571Y-102654819D02*
X191933333Y-102607200D01*
X191933333Y-102607200D02*
X191885714Y-102559580D01*
X191885714Y-102559580D02*
X191838095Y-102464342D01*
X191838095Y-102464342D02*
X191838095Y-102226247D01*
X191838095Y-102226247D02*
X191885714Y-102131009D01*
X191885714Y-102131009D02*
X191933333Y-102083390D01*
X191933333Y-102083390D02*
X192028571Y-102035771D01*
X192028571Y-102035771D02*
X192219047Y-102035771D01*
X192219047Y-102035771D02*
X192314285Y-102083390D01*
X192314285Y-102083390D02*
X192361904Y-102131009D01*
X192361904Y-102131009D02*
X192409523Y-102226247D01*
X198862295Y-114866667D02*
X198481342Y-114600000D01*
X198862295Y-114409524D02*
X198062295Y-114409524D01*
X198062295Y-114409524D02*
X198062295Y-114714286D01*
X198062295Y-114714286D02*
X198100390Y-114790476D01*
X198100390Y-114790476D02*
X198138485Y-114828571D01*
X198138485Y-114828571D02*
X198214676Y-114866667D01*
X198214676Y-114866667D02*
X198328961Y-114866667D01*
X198328961Y-114866667D02*
X198405152Y-114828571D01*
X198405152Y-114828571D02*
X198443247Y-114790476D01*
X198443247Y-114790476D02*
X198481342Y-114714286D01*
X198481342Y-114714286D02*
X198481342Y-114409524D01*
X198862295Y-115628571D02*
X198862295Y-115171428D01*
X198862295Y-115400000D02*
X198062295Y-115400000D01*
X198062295Y-115400000D02*
X198176580Y-115323809D01*
X198176580Y-115323809D02*
X198252771Y-115247619D01*
X198252771Y-115247619D02*
X198290866Y-115171428D01*
X239809580Y-115957142D02*
X239857200Y-115909523D01*
X239857200Y-115909523D02*
X239904819Y-115766666D01*
X239904819Y-115766666D02*
X239904819Y-115671428D01*
X239904819Y-115671428D02*
X239857200Y-115528571D01*
X239857200Y-115528571D02*
X239761961Y-115433333D01*
X239761961Y-115433333D02*
X239666723Y-115385714D01*
X239666723Y-115385714D02*
X239476247Y-115338095D01*
X239476247Y-115338095D02*
X239333390Y-115338095D01*
X239333390Y-115338095D02*
X239142914Y-115385714D01*
X239142914Y-115385714D02*
X239047676Y-115433333D01*
X239047676Y-115433333D02*
X238952438Y-115528571D01*
X238952438Y-115528571D02*
X238904819Y-115671428D01*
X238904819Y-115671428D02*
X238904819Y-115766666D01*
X238904819Y-115766666D02*
X238952438Y-115909523D01*
X238952438Y-115909523D02*
X239000057Y-115957142D01*
X239000057Y-116338095D02*
X238952438Y-116385714D01*
X238952438Y-116385714D02*
X238904819Y-116480952D01*
X238904819Y-116480952D02*
X238904819Y-116719047D01*
X238904819Y-116719047D02*
X238952438Y-116814285D01*
X238952438Y-116814285D02*
X239000057Y-116861904D01*
X239000057Y-116861904D02*
X239095295Y-116909523D01*
X239095295Y-116909523D02*
X239190533Y-116909523D01*
X239190533Y-116909523D02*
X239333390Y-116861904D01*
X239333390Y-116861904D02*
X239904819Y-116290476D01*
X239904819Y-116290476D02*
X239904819Y-116909523D01*
X238904819Y-117528571D02*
X238904819Y-117623809D01*
X238904819Y-117623809D02*
X238952438Y-117719047D01*
X238952438Y-117719047D02*
X239000057Y-117766666D01*
X239000057Y-117766666D02*
X239095295Y-117814285D01*
X239095295Y-117814285D02*
X239285771Y-117861904D01*
X239285771Y-117861904D02*
X239523866Y-117861904D01*
X239523866Y-117861904D02*
X239714342Y-117814285D01*
X239714342Y-117814285D02*
X239809580Y-117766666D01*
X239809580Y-117766666D02*
X239857200Y-117719047D01*
X239857200Y-117719047D02*
X239904819Y-117623809D01*
X239904819Y-117623809D02*
X239904819Y-117528571D01*
X239904819Y-117528571D02*
X239857200Y-117433333D01*
X239857200Y-117433333D02*
X239809580Y-117385714D01*
X239809580Y-117385714D02*
X239714342Y-117338095D01*
X239714342Y-117338095D02*
X239523866Y-117290476D01*
X239523866Y-117290476D02*
X239285771Y-117290476D01*
X239285771Y-117290476D02*
X239095295Y-117338095D01*
X239095295Y-117338095D02*
X239000057Y-117385714D01*
X239000057Y-117385714D02*
X238952438Y-117433333D01*
X238952438Y-117433333D02*
X238904819Y-117528571D01*
X186261904Y-110454819D02*
X186261904Y-111264342D01*
X186261904Y-111264342D02*
X186214285Y-111359580D01*
X186214285Y-111359580D02*
X186166666Y-111407200D01*
X186166666Y-111407200D02*
X186071428Y-111454819D01*
X186071428Y-111454819D02*
X185880952Y-111454819D01*
X185880952Y-111454819D02*
X185785714Y-111407200D01*
X185785714Y-111407200D02*
X185738095Y-111359580D01*
X185738095Y-111359580D02*
X185690476Y-111264342D01*
X185690476Y-111264342D02*
X185690476Y-110454819D01*
X185261904Y-110550057D02*
X185214285Y-110502438D01*
X185214285Y-110502438D02*
X185119047Y-110454819D01*
X185119047Y-110454819D02*
X184880952Y-110454819D01*
X184880952Y-110454819D02*
X184785714Y-110502438D01*
X184785714Y-110502438D02*
X184738095Y-110550057D01*
X184738095Y-110550057D02*
X184690476Y-110645295D01*
X184690476Y-110645295D02*
X184690476Y-110740533D01*
X184690476Y-110740533D02*
X184738095Y-110883390D01*
X184738095Y-110883390D02*
X185309523Y-111454819D01*
X185309523Y-111454819D02*
X184690476Y-111454819D01*
X191619047Y-118169104D02*
X191142857Y-118169104D01*
X191714285Y-118454819D02*
X191380952Y-117454819D01*
X191380952Y-117454819D02*
X191047619Y-118454819D01*
X190857142Y-117454819D02*
X190285714Y-117454819D01*
X190571428Y-118454819D02*
X190571428Y-117454819D01*
X189952380Y-118454819D02*
X189952380Y-117788152D01*
X189952380Y-117883390D02*
X189904761Y-117835771D01*
X189904761Y-117835771D02*
X189809523Y-117788152D01*
X189809523Y-117788152D02*
X189666666Y-117788152D01*
X189666666Y-117788152D02*
X189571428Y-117835771D01*
X189571428Y-117835771D02*
X189523809Y-117931009D01*
X189523809Y-117931009D02*
X189523809Y-118454819D01*
X189523809Y-117931009D02*
X189476190Y-117835771D01*
X189476190Y-117835771D02*
X189380952Y-117788152D01*
X189380952Y-117788152D02*
X189238095Y-117788152D01*
X189238095Y-117788152D02*
X189142856Y-117835771D01*
X189142856Y-117835771D02*
X189095237Y-117931009D01*
X189095237Y-117931009D02*
X189095237Y-118454819D01*
X188238095Y-118407200D02*
X188333333Y-118454819D01*
X188333333Y-118454819D02*
X188523809Y-118454819D01*
X188523809Y-118454819D02*
X188619047Y-118407200D01*
X188619047Y-118407200D02*
X188666666Y-118311961D01*
X188666666Y-118311961D02*
X188666666Y-117931009D01*
X188666666Y-117931009D02*
X188619047Y-117835771D01*
X188619047Y-117835771D02*
X188523809Y-117788152D01*
X188523809Y-117788152D02*
X188333333Y-117788152D01*
X188333333Y-117788152D02*
X188238095Y-117835771D01*
X188238095Y-117835771D02*
X188190476Y-117931009D01*
X188190476Y-117931009D02*
X188190476Y-118026247D01*
X188190476Y-118026247D02*
X188666666Y-118121485D01*
X187333333Y-117788152D02*
X187333333Y-118597676D01*
X187333333Y-118597676D02*
X187380952Y-118692914D01*
X187380952Y-118692914D02*
X187428571Y-118740533D01*
X187428571Y-118740533D02*
X187523809Y-118788152D01*
X187523809Y-118788152D02*
X187666666Y-118788152D01*
X187666666Y-118788152D02*
X187761904Y-118740533D01*
X187333333Y-118407200D02*
X187428571Y-118454819D01*
X187428571Y-118454819D02*
X187619047Y-118454819D01*
X187619047Y-118454819D02*
X187714285Y-118407200D01*
X187714285Y-118407200D02*
X187761904Y-118359580D01*
X187761904Y-118359580D02*
X187809523Y-118264342D01*
X187809523Y-118264342D02*
X187809523Y-117978628D01*
X187809523Y-117978628D02*
X187761904Y-117883390D01*
X187761904Y-117883390D02*
X187714285Y-117835771D01*
X187714285Y-117835771D02*
X187619047Y-117788152D01*
X187619047Y-117788152D02*
X187428571Y-117788152D01*
X187428571Y-117788152D02*
X187333333Y-117835771D01*
X186428571Y-118454819D02*
X186428571Y-117931009D01*
X186428571Y-117931009D02*
X186476190Y-117835771D01*
X186476190Y-117835771D02*
X186571428Y-117788152D01*
X186571428Y-117788152D02*
X186761904Y-117788152D01*
X186761904Y-117788152D02*
X186857142Y-117835771D01*
X186428571Y-118407200D02*
X186523809Y-118454819D01*
X186523809Y-118454819D02*
X186761904Y-118454819D01*
X186761904Y-118454819D02*
X186857142Y-118407200D01*
X186857142Y-118407200D02*
X186904761Y-118311961D01*
X186904761Y-118311961D02*
X186904761Y-118216723D01*
X186904761Y-118216723D02*
X186857142Y-118121485D01*
X186857142Y-118121485D02*
X186761904Y-118073866D01*
X186761904Y-118073866D02*
X186523809Y-118073866D01*
X186523809Y-118073866D02*
X186428571Y-118026247D01*
X186047618Y-117454819D02*
X185428571Y-117454819D01*
X185428571Y-117454819D02*
X185761904Y-117835771D01*
X185761904Y-117835771D02*
X185619047Y-117835771D01*
X185619047Y-117835771D02*
X185523809Y-117883390D01*
X185523809Y-117883390D02*
X185476190Y-117931009D01*
X185476190Y-117931009D02*
X185428571Y-118026247D01*
X185428571Y-118026247D02*
X185428571Y-118264342D01*
X185428571Y-118264342D02*
X185476190Y-118359580D01*
X185476190Y-118359580D02*
X185523809Y-118407200D01*
X185523809Y-118407200D02*
X185619047Y-118454819D01*
X185619047Y-118454819D02*
X185904761Y-118454819D01*
X185904761Y-118454819D02*
X185999999Y-118407200D01*
X185999999Y-118407200D02*
X186047618Y-118359580D01*
X185047618Y-117550057D02*
X184999999Y-117502438D01*
X184999999Y-117502438D02*
X184904761Y-117454819D01*
X184904761Y-117454819D02*
X184666666Y-117454819D01*
X184666666Y-117454819D02*
X184571428Y-117502438D01*
X184571428Y-117502438D02*
X184523809Y-117550057D01*
X184523809Y-117550057D02*
X184476190Y-117645295D01*
X184476190Y-117645295D02*
X184476190Y-117740533D01*
X184476190Y-117740533D02*
X184523809Y-117883390D01*
X184523809Y-117883390D02*
X185095237Y-118454819D01*
X185095237Y-118454819D02*
X184476190Y-118454819D01*
X184047618Y-117454819D02*
X184047618Y-118264342D01*
X184047618Y-118264342D02*
X183999999Y-118359580D01*
X183999999Y-118359580D02*
X183952380Y-118407200D01*
X183952380Y-118407200D02*
X183857142Y-118454819D01*
X183857142Y-118454819D02*
X183666666Y-118454819D01*
X183666666Y-118454819D02*
X183571428Y-118407200D01*
X183571428Y-118407200D02*
X183523809Y-118359580D01*
X183523809Y-118359580D02*
X183476190Y-118264342D01*
X183476190Y-118264342D02*
X183476190Y-117454819D01*
X182571428Y-117788152D02*
X182571428Y-118454819D01*
X182809523Y-117407200D02*
X183047618Y-118121485D01*
X183047618Y-118121485D02*
X182428571Y-118121485D01*
X182047618Y-118073866D02*
X181285714Y-118073866D01*
X180857142Y-118169104D02*
X180380952Y-118169104D01*
X180952380Y-118454819D02*
X180619047Y-117454819D01*
X180619047Y-117454819D02*
X180285714Y-118454819D01*
D11*
X311474318Y-40092380D02*
X310204318Y-40092380D01*
X310204318Y-40092380D02*
X311111461Y-40515714D01*
X311111461Y-40515714D02*
X310204318Y-40939047D01*
X310204318Y-40939047D02*
X311474318Y-40939047D01*
X311474318Y-42088095D02*
X310809080Y-42088095D01*
X310809080Y-42088095D02*
X310688127Y-42027619D01*
X310688127Y-42027619D02*
X310627651Y-41906667D01*
X310627651Y-41906667D02*
X310627651Y-41664762D01*
X310627651Y-41664762D02*
X310688127Y-41543809D01*
X311413842Y-42088095D02*
X311474318Y-41967143D01*
X311474318Y-41967143D02*
X311474318Y-41664762D01*
X311474318Y-41664762D02*
X311413842Y-41543809D01*
X311413842Y-41543809D02*
X311292889Y-41483333D01*
X311292889Y-41483333D02*
X311171937Y-41483333D01*
X311171937Y-41483333D02*
X311050984Y-41543809D01*
X311050984Y-41543809D02*
X310990508Y-41664762D01*
X310990508Y-41664762D02*
X310990508Y-41967143D01*
X310990508Y-41967143D02*
X310930032Y-42088095D01*
X311474318Y-42692857D02*
X310627651Y-42692857D01*
X310204318Y-42692857D02*
X310264794Y-42632381D01*
X310264794Y-42632381D02*
X310325270Y-42692857D01*
X310325270Y-42692857D02*
X310264794Y-42753334D01*
X310264794Y-42753334D02*
X310204318Y-42692857D01*
X310204318Y-42692857D02*
X310325270Y-42692857D01*
X310627651Y-43297619D02*
X311474318Y-43297619D01*
X310748603Y-43297619D02*
X310688127Y-43358096D01*
X310688127Y-43358096D02*
X310627651Y-43479048D01*
X310627651Y-43479048D02*
X310627651Y-43660477D01*
X310627651Y-43660477D02*
X310688127Y-43781429D01*
X310688127Y-43781429D02*
X310809080Y-43841905D01*
X310809080Y-43841905D02*
X311474318Y-43841905D01*
X311595270Y-44144287D02*
X311595270Y-45111906D01*
X311413842Y-45958572D02*
X311474318Y-45837620D01*
X311474318Y-45837620D02*
X311474318Y-45595715D01*
X311474318Y-45595715D02*
X311413842Y-45474763D01*
X311413842Y-45474763D02*
X311353365Y-45414286D01*
X311353365Y-45414286D02*
X311232413Y-45353810D01*
X311232413Y-45353810D02*
X310869556Y-45353810D01*
X310869556Y-45353810D02*
X310748603Y-45414286D01*
X310748603Y-45414286D02*
X310688127Y-45474763D01*
X310688127Y-45474763D02*
X310627651Y-45595715D01*
X310627651Y-45595715D02*
X310627651Y-45837620D01*
X310627651Y-45837620D02*
X310688127Y-45958572D01*
X310204318Y-46381905D02*
X310204318Y-47168096D01*
X310204318Y-47168096D02*
X310688127Y-46744762D01*
X310688127Y-46744762D02*
X310688127Y-46926191D01*
X310688127Y-46926191D02*
X310748603Y-47047143D01*
X310748603Y-47047143D02*
X310809080Y-47107619D01*
X310809080Y-47107619D02*
X310930032Y-47168096D01*
X310930032Y-47168096D02*
X311232413Y-47168096D01*
X311232413Y-47168096D02*
X311353365Y-47107619D01*
X311353365Y-47107619D02*
X311413842Y-47047143D01*
X311413842Y-47047143D02*
X311474318Y-46926191D01*
X311474318Y-46926191D02*
X311474318Y-46563334D01*
X311474318Y-46563334D02*
X311413842Y-46442381D01*
X311413842Y-46442381D02*
X311353365Y-46381905D01*
D10*
X173195273Y-117409569D02*
X172528607Y-118409569D01*
X172528607Y-117409569D02*
X173195273Y-118409569D01*
X171623845Y-118409569D02*
X172195273Y-118409569D01*
X171909559Y-118409569D02*
X171909559Y-117409569D01*
X171909559Y-117409569D02*
X172004797Y-117552426D01*
X172004797Y-117552426D02*
X172100035Y-117647664D01*
X172100035Y-117647664D02*
X172195273Y-117695283D01*
D11*
X300274318Y-86292380D02*
X299004318Y-86292380D01*
X299004318Y-86292380D02*
X299911461Y-86715714D01*
X299911461Y-86715714D02*
X299004318Y-87139047D01*
X299004318Y-87139047D02*
X300274318Y-87139047D01*
X300274318Y-88288095D02*
X299609080Y-88288095D01*
X299609080Y-88288095D02*
X299488127Y-88227619D01*
X299488127Y-88227619D02*
X299427651Y-88106667D01*
X299427651Y-88106667D02*
X299427651Y-87864762D01*
X299427651Y-87864762D02*
X299488127Y-87743809D01*
X300213842Y-88288095D02*
X300274318Y-88167143D01*
X300274318Y-88167143D02*
X300274318Y-87864762D01*
X300274318Y-87864762D02*
X300213842Y-87743809D01*
X300213842Y-87743809D02*
X300092889Y-87683333D01*
X300092889Y-87683333D02*
X299971937Y-87683333D01*
X299971937Y-87683333D02*
X299850984Y-87743809D01*
X299850984Y-87743809D02*
X299790508Y-87864762D01*
X299790508Y-87864762D02*
X299790508Y-88167143D01*
X299790508Y-88167143D02*
X299730032Y-88288095D01*
X300274318Y-88892857D02*
X299427651Y-88892857D01*
X299004318Y-88892857D02*
X299064794Y-88832381D01*
X299064794Y-88832381D02*
X299125270Y-88892857D01*
X299125270Y-88892857D02*
X299064794Y-88953334D01*
X299064794Y-88953334D02*
X299004318Y-88892857D01*
X299004318Y-88892857D02*
X299125270Y-88892857D01*
X299427651Y-89497619D02*
X300274318Y-89497619D01*
X299548603Y-89497619D02*
X299488127Y-89558096D01*
X299488127Y-89558096D02*
X299427651Y-89679048D01*
X299427651Y-89679048D02*
X299427651Y-89860477D01*
X299427651Y-89860477D02*
X299488127Y-89981429D01*
X299488127Y-89981429D02*
X299609080Y-90041905D01*
X299609080Y-90041905D02*
X300274318Y-90041905D01*
X300395270Y-90344287D02*
X300395270Y-91311906D01*
X300213842Y-92158572D02*
X300274318Y-92037620D01*
X300274318Y-92037620D02*
X300274318Y-91795715D01*
X300274318Y-91795715D02*
X300213842Y-91674763D01*
X300213842Y-91674763D02*
X300153365Y-91614286D01*
X300153365Y-91614286D02*
X300032413Y-91553810D01*
X300032413Y-91553810D02*
X299669556Y-91553810D01*
X299669556Y-91553810D02*
X299548603Y-91614286D01*
X299548603Y-91614286D02*
X299488127Y-91674763D01*
X299488127Y-91674763D02*
X299427651Y-91795715D01*
X299427651Y-91795715D02*
X299427651Y-92037620D01*
X299427651Y-92037620D02*
X299488127Y-92158572D01*
X299004318Y-93307619D02*
X299004318Y-92702857D01*
X299004318Y-92702857D02*
X299609080Y-92642381D01*
X299609080Y-92642381D02*
X299548603Y-92702857D01*
X299548603Y-92702857D02*
X299488127Y-92823810D01*
X299488127Y-92823810D02*
X299488127Y-93126191D01*
X299488127Y-93126191D02*
X299548603Y-93247143D01*
X299548603Y-93247143D02*
X299609080Y-93307619D01*
X299609080Y-93307619D02*
X299730032Y-93368096D01*
X299730032Y-93368096D02*
X300032413Y-93368096D01*
X300032413Y-93368096D02*
X300153365Y-93307619D01*
X300153365Y-93307619D02*
X300213842Y-93247143D01*
X300213842Y-93247143D02*
X300274318Y-93126191D01*
X300274318Y-93126191D02*
X300274318Y-92823810D01*
X300274318Y-92823810D02*
X300213842Y-92702857D01*
X300213842Y-92702857D02*
X300153365Y-92642381D01*
X335074318Y-111792380D02*
X333804318Y-111792380D01*
X333804318Y-111792380D02*
X334711461Y-112215714D01*
X334711461Y-112215714D02*
X333804318Y-112639047D01*
X333804318Y-112639047D02*
X335074318Y-112639047D01*
X335074318Y-113788095D02*
X334409080Y-113788095D01*
X334409080Y-113788095D02*
X334288127Y-113727619D01*
X334288127Y-113727619D02*
X334227651Y-113606667D01*
X334227651Y-113606667D02*
X334227651Y-113364762D01*
X334227651Y-113364762D02*
X334288127Y-113243809D01*
X335013842Y-113788095D02*
X335074318Y-113667143D01*
X335074318Y-113667143D02*
X335074318Y-113364762D01*
X335074318Y-113364762D02*
X335013842Y-113243809D01*
X335013842Y-113243809D02*
X334892889Y-113183333D01*
X334892889Y-113183333D02*
X334771937Y-113183333D01*
X334771937Y-113183333D02*
X334650984Y-113243809D01*
X334650984Y-113243809D02*
X334590508Y-113364762D01*
X334590508Y-113364762D02*
X334590508Y-113667143D01*
X334590508Y-113667143D02*
X334530032Y-113788095D01*
X335074318Y-114392857D02*
X334227651Y-114392857D01*
X333804318Y-114392857D02*
X333864794Y-114332381D01*
X333864794Y-114332381D02*
X333925270Y-114392857D01*
X333925270Y-114392857D02*
X333864794Y-114453334D01*
X333864794Y-114453334D02*
X333804318Y-114392857D01*
X333804318Y-114392857D02*
X333925270Y-114392857D01*
X334227651Y-114997619D02*
X335074318Y-114997619D01*
X334348603Y-114997619D02*
X334288127Y-115058096D01*
X334288127Y-115058096D02*
X334227651Y-115179048D01*
X334227651Y-115179048D02*
X334227651Y-115360477D01*
X334227651Y-115360477D02*
X334288127Y-115481429D01*
X334288127Y-115481429D02*
X334409080Y-115541905D01*
X334409080Y-115541905D02*
X335074318Y-115541905D01*
X335195270Y-115844287D02*
X335195270Y-116811906D01*
X335013842Y-117658572D02*
X335074318Y-117537620D01*
X335074318Y-117537620D02*
X335074318Y-117295715D01*
X335074318Y-117295715D02*
X335013842Y-117174763D01*
X335013842Y-117174763D02*
X334953365Y-117114286D01*
X334953365Y-117114286D02*
X334832413Y-117053810D01*
X334832413Y-117053810D02*
X334469556Y-117053810D01*
X334469556Y-117053810D02*
X334348603Y-117114286D01*
X334348603Y-117114286D02*
X334288127Y-117174763D01*
X334288127Y-117174763D02*
X334227651Y-117295715D01*
X334227651Y-117295715D02*
X334227651Y-117537620D01*
X334227651Y-117537620D02*
X334288127Y-117658572D01*
X333804318Y-118081905D02*
X333804318Y-118928572D01*
X333804318Y-118928572D02*
X335074318Y-118384286D01*
D10*
X197166666Y-109954819D02*
X197499999Y-109478628D01*
X197738094Y-109954819D02*
X197738094Y-108954819D01*
X197738094Y-108954819D02*
X197357142Y-108954819D01*
X197357142Y-108954819D02*
X197261904Y-109002438D01*
X197261904Y-109002438D02*
X197214285Y-109050057D01*
X197214285Y-109050057D02*
X197166666Y-109145295D01*
X197166666Y-109145295D02*
X197166666Y-109288152D01*
X197166666Y-109288152D02*
X197214285Y-109383390D01*
X197214285Y-109383390D02*
X197261904Y-109431009D01*
X197261904Y-109431009D02*
X197357142Y-109478628D01*
X197357142Y-109478628D02*
X197738094Y-109478628D01*
X196785713Y-109050057D02*
X196738094Y-109002438D01*
X196738094Y-109002438D02*
X196642856Y-108954819D01*
X196642856Y-108954819D02*
X196404761Y-108954819D01*
X196404761Y-108954819D02*
X196309523Y-109002438D01*
X196309523Y-109002438D02*
X196261904Y-109050057D01*
X196261904Y-109050057D02*
X196214285Y-109145295D01*
X196214285Y-109145295D02*
X196214285Y-109240533D01*
X196214285Y-109240533D02*
X196261904Y-109383390D01*
X196261904Y-109383390D02*
X196833332Y-109954819D01*
X196833332Y-109954819D02*
X196214285Y-109954819D01*
D11*
X335274318Y-23392380D02*
X334004318Y-23392380D01*
X334004318Y-23392380D02*
X334911461Y-23815714D01*
X334911461Y-23815714D02*
X334004318Y-24239047D01*
X334004318Y-24239047D02*
X335274318Y-24239047D01*
X335274318Y-25388095D02*
X334609080Y-25388095D01*
X334609080Y-25388095D02*
X334488127Y-25327619D01*
X334488127Y-25327619D02*
X334427651Y-25206667D01*
X334427651Y-25206667D02*
X334427651Y-24964762D01*
X334427651Y-24964762D02*
X334488127Y-24843809D01*
X335213842Y-25388095D02*
X335274318Y-25267143D01*
X335274318Y-25267143D02*
X335274318Y-24964762D01*
X335274318Y-24964762D02*
X335213842Y-24843809D01*
X335213842Y-24843809D02*
X335092889Y-24783333D01*
X335092889Y-24783333D02*
X334971937Y-24783333D01*
X334971937Y-24783333D02*
X334850984Y-24843809D01*
X334850984Y-24843809D02*
X334790508Y-24964762D01*
X334790508Y-24964762D02*
X334790508Y-25267143D01*
X334790508Y-25267143D02*
X334730032Y-25388095D01*
X335274318Y-25992857D02*
X334427651Y-25992857D01*
X334004318Y-25992857D02*
X334064794Y-25932381D01*
X334064794Y-25932381D02*
X334125270Y-25992857D01*
X334125270Y-25992857D02*
X334064794Y-26053334D01*
X334064794Y-26053334D02*
X334004318Y-25992857D01*
X334004318Y-25992857D02*
X334125270Y-25992857D01*
X334427651Y-26597619D02*
X335274318Y-26597619D01*
X334548603Y-26597619D02*
X334488127Y-26658096D01*
X334488127Y-26658096D02*
X334427651Y-26779048D01*
X334427651Y-26779048D02*
X334427651Y-26960477D01*
X334427651Y-26960477D02*
X334488127Y-27081429D01*
X334488127Y-27081429D02*
X334609080Y-27141905D01*
X334609080Y-27141905D02*
X335274318Y-27141905D01*
X335395270Y-27444287D02*
X335395270Y-28411906D01*
X335213842Y-29258572D02*
X335274318Y-29137620D01*
X335274318Y-29137620D02*
X335274318Y-28895715D01*
X335274318Y-28895715D02*
X335213842Y-28774763D01*
X335213842Y-28774763D02*
X335153365Y-28714286D01*
X335153365Y-28714286D02*
X335032413Y-28653810D01*
X335032413Y-28653810D02*
X334669556Y-28653810D01*
X334669556Y-28653810D02*
X334548603Y-28714286D01*
X334548603Y-28714286D02*
X334488127Y-28774763D01*
X334488127Y-28774763D02*
X334427651Y-28895715D01*
X334427651Y-28895715D02*
X334427651Y-29137620D01*
X334427651Y-29137620D02*
X334488127Y-29258572D01*
X334125270Y-29742381D02*
X334064794Y-29802857D01*
X334064794Y-29802857D02*
X334004318Y-29923810D01*
X334004318Y-29923810D02*
X334004318Y-30226191D01*
X334004318Y-30226191D02*
X334064794Y-30347143D01*
X334064794Y-30347143D02*
X334125270Y-30407619D01*
X334125270Y-30407619D02*
X334246222Y-30468096D01*
X334246222Y-30468096D02*
X334367175Y-30468096D01*
X334367175Y-30468096D02*
X334548603Y-30407619D01*
X334548603Y-30407619D02*
X335274318Y-29681905D01*
X335274318Y-29681905D02*
X335274318Y-30468096D01*
D10*
X197166666Y-107554819D02*
X197499999Y-107078628D01*
X197738094Y-107554819D02*
X197738094Y-106554819D01*
X197738094Y-106554819D02*
X197357142Y-106554819D01*
X197357142Y-106554819D02*
X197261904Y-106602438D01*
X197261904Y-106602438D02*
X197214285Y-106650057D01*
X197214285Y-106650057D02*
X197166666Y-106745295D01*
X197166666Y-106745295D02*
X197166666Y-106888152D01*
X197166666Y-106888152D02*
X197214285Y-106983390D01*
X197214285Y-106983390D02*
X197261904Y-107031009D01*
X197261904Y-107031009D02*
X197357142Y-107078628D01*
X197357142Y-107078628D02*
X197738094Y-107078628D01*
X196833332Y-106554819D02*
X196214285Y-106554819D01*
X196214285Y-106554819D02*
X196547618Y-106935771D01*
X196547618Y-106935771D02*
X196404761Y-106935771D01*
X196404761Y-106935771D02*
X196309523Y-106983390D01*
X196309523Y-106983390D02*
X196261904Y-107031009D01*
X196261904Y-107031009D02*
X196214285Y-107126247D01*
X196214285Y-107126247D02*
X196214285Y-107364342D01*
X196214285Y-107364342D02*
X196261904Y-107459580D01*
X196261904Y-107459580D02*
X196309523Y-107507200D01*
X196309523Y-107507200D02*
X196404761Y-107554819D01*
X196404761Y-107554819D02*
X196690475Y-107554819D01*
X196690475Y-107554819D02*
X196785713Y-107507200D01*
X196785713Y-107507200D02*
X196833332Y-107459580D01*
X174936104Y-109985714D02*
X174974200Y-109947618D01*
X174974200Y-109947618D02*
X175012295Y-109833333D01*
X175012295Y-109833333D02*
X175012295Y-109757142D01*
X175012295Y-109757142D02*
X174974200Y-109642856D01*
X174974200Y-109642856D02*
X174898009Y-109566666D01*
X174898009Y-109566666D02*
X174821819Y-109528571D01*
X174821819Y-109528571D02*
X174669438Y-109490475D01*
X174669438Y-109490475D02*
X174555152Y-109490475D01*
X174555152Y-109490475D02*
X174402771Y-109528571D01*
X174402771Y-109528571D02*
X174326580Y-109566666D01*
X174326580Y-109566666D02*
X174250390Y-109642856D01*
X174250390Y-109642856D02*
X174212295Y-109757142D01*
X174212295Y-109757142D02*
X174212295Y-109833333D01*
X174212295Y-109833333D02*
X174250390Y-109947618D01*
X174250390Y-109947618D02*
X174288485Y-109985714D01*
X175012295Y-110747618D02*
X175012295Y-110290475D01*
X175012295Y-110519047D02*
X174212295Y-110519047D01*
X174212295Y-110519047D02*
X174326580Y-110442856D01*
X174326580Y-110442856D02*
X174402771Y-110366666D01*
X174402771Y-110366666D02*
X174440866Y-110290475D01*
X174555152Y-111204761D02*
X174517057Y-111128571D01*
X174517057Y-111128571D02*
X174478961Y-111090476D01*
X174478961Y-111090476D02*
X174402771Y-111052380D01*
X174402771Y-111052380D02*
X174364676Y-111052380D01*
X174364676Y-111052380D02*
X174288485Y-111090476D01*
X174288485Y-111090476D02*
X174250390Y-111128571D01*
X174250390Y-111128571D02*
X174212295Y-111204761D01*
X174212295Y-111204761D02*
X174212295Y-111357142D01*
X174212295Y-111357142D02*
X174250390Y-111433333D01*
X174250390Y-111433333D02*
X174288485Y-111471428D01*
X174288485Y-111471428D02*
X174364676Y-111509523D01*
X174364676Y-111509523D02*
X174402771Y-111509523D01*
X174402771Y-111509523D02*
X174478961Y-111471428D01*
X174478961Y-111471428D02*
X174517057Y-111433333D01*
X174517057Y-111433333D02*
X174555152Y-111357142D01*
X174555152Y-111357142D02*
X174555152Y-111204761D01*
X174555152Y-111204761D02*
X174593247Y-111128571D01*
X174593247Y-111128571D02*
X174631342Y-111090476D01*
X174631342Y-111090476D02*
X174707533Y-111052380D01*
X174707533Y-111052380D02*
X174859914Y-111052380D01*
X174859914Y-111052380D02*
X174936104Y-111090476D01*
X174936104Y-111090476D02*
X174974200Y-111128571D01*
X174974200Y-111128571D02*
X175012295Y-111204761D01*
X175012295Y-111204761D02*
X175012295Y-111357142D01*
X175012295Y-111357142D02*
X174974200Y-111433333D01*
X174974200Y-111433333D02*
X174936104Y-111471428D01*
X174936104Y-111471428D02*
X174859914Y-111509523D01*
X174859914Y-111509523D02*
X174707533Y-111509523D01*
X174707533Y-111509523D02*
X174631342Y-111471428D01*
X174631342Y-111471428D02*
X174593247Y-111433333D01*
X174593247Y-111433333D02*
X174555152Y-111357142D01*
D11*
X22749318Y-24701665D02*
X21479318Y-24701665D01*
X21479318Y-24701665D02*
X22386461Y-25124999D01*
X22386461Y-25124999D02*
X21479318Y-25548332D01*
X21479318Y-25548332D02*
X22749318Y-25548332D01*
X22749318Y-26697380D02*
X22084080Y-26697380D01*
X22084080Y-26697380D02*
X21963127Y-26636904D01*
X21963127Y-26636904D02*
X21902651Y-26515952D01*
X21902651Y-26515952D02*
X21902651Y-26274047D01*
X21902651Y-26274047D02*
X21963127Y-26153094D01*
X22688842Y-26697380D02*
X22749318Y-26576428D01*
X22749318Y-26576428D02*
X22749318Y-26274047D01*
X22749318Y-26274047D02*
X22688842Y-26153094D01*
X22688842Y-26153094D02*
X22567889Y-26092618D01*
X22567889Y-26092618D02*
X22446937Y-26092618D01*
X22446937Y-26092618D02*
X22325984Y-26153094D01*
X22325984Y-26153094D02*
X22265508Y-26274047D01*
X22265508Y-26274047D02*
X22265508Y-26576428D01*
X22265508Y-26576428D02*
X22205032Y-26697380D01*
X22749318Y-27302142D02*
X21902651Y-27302142D01*
X21479318Y-27302142D02*
X21539794Y-27241666D01*
X21539794Y-27241666D02*
X21600270Y-27302142D01*
X21600270Y-27302142D02*
X21539794Y-27362619D01*
X21539794Y-27362619D02*
X21479318Y-27302142D01*
X21479318Y-27302142D02*
X21600270Y-27302142D01*
X21902651Y-27906904D02*
X22749318Y-27906904D01*
X22023603Y-27906904D02*
X21963127Y-27967381D01*
X21963127Y-27967381D02*
X21902651Y-28088333D01*
X21902651Y-28088333D02*
X21902651Y-28269762D01*
X21902651Y-28269762D02*
X21963127Y-28390714D01*
X21963127Y-28390714D02*
X22084080Y-28451190D01*
X22084080Y-28451190D02*
X22749318Y-28451190D01*
X22870270Y-28753572D02*
X22870270Y-29721191D01*
X22628365Y-30749286D02*
X22688842Y-30688810D01*
X22688842Y-30688810D02*
X22749318Y-30507381D01*
X22749318Y-30507381D02*
X22749318Y-30386429D01*
X22749318Y-30386429D02*
X22688842Y-30205000D01*
X22688842Y-30205000D02*
X22567889Y-30084048D01*
X22567889Y-30084048D02*
X22446937Y-30023571D01*
X22446937Y-30023571D02*
X22205032Y-29963095D01*
X22205032Y-29963095D02*
X22023603Y-29963095D01*
X22023603Y-29963095D02*
X21781699Y-30023571D01*
X21781699Y-30023571D02*
X21660746Y-30084048D01*
X21660746Y-30084048D02*
X21539794Y-30205000D01*
X21539794Y-30205000D02*
X21479318Y-30386429D01*
X21479318Y-30386429D02*
X21479318Y-30507381D01*
X21479318Y-30507381D02*
X21539794Y-30688810D01*
X21539794Y-30688810D02*
X21600270Y-30749286D01*
X22749318Y-31958810D02*
X22749318Y-31233095D01*
X22749318Y-31595952D02*
X21479318Y-31595952D01*
X21479318Y-31595952D02*
X21660746Y-31475000D01*
X21660746Y-31475000D02*
X21781699Y-31354048D01*
X21781699Y-31354048D02*
X21842175Y-31233095D01*
D13*
%TO.C,U3*%
X23274000Y-45578500D02*
X23274000Y-48621500D01*
X23274000Y-48621500D02*
X28326000Y-48621500D01*
X28326000Y-45578500D02*
X23274000Y-45578500D01*
X28326000Y-48621500D02*
X28326000Y-45578500D01*
D14*
X27855000Y-47869000D02*
G75*
G02*
X27555000Y-47869000I-150000J0D01*
G01*
X27555000Y-47869000D02*
G75*
G02*
X27855000Y-47869000I150000J0D01*
G01*
X28601500Y-49872500D02*
G75*
G02*
X28301500Y-49872500I-150000J0D01*
G01*
X28301500Y-49872500D02*
G75*
G02*
X28601500Y-49872500I150000J0D01*
G01*
D15*
%TO.C,Main_c6*%
X329325000Y-105150000D02*
X329325000Y-97850000D01*
X333675000Y-97850000D02*
X333675000Y-105750000D01*
%TO.C,Main_c4*%
X282325000Y-62750000D02*
X282325000Y-55450000D01*
X286675000Y-55450000D02*
X286675000Y-63350000D01*
D16*
%TO.C,5.1K_R2*%
X16890000Y-42372936D02*
X16890000Y-43827064D01*
X18710000Y-42372936D02*
X18710000Y-43827064D01*
%TO.C,C16*%
X192288748Y-103090000D02*
X193711252Y-103090000D01*
X192288748Y-104910000D02*
X193711252Y-104910000D01*
%TO.C,R1*%
X197590000Y-114272936D02*
X197590000Y-115727064D01*
X199410000Y-114272936D02*
X199410000Y-115727064D01*
%TO.C,C20*%
X236690000Y-117311252D02*
X236690000Y-115888748D01*
X238510000Y-117311252D02*
X238510000Y-115888748D01*
D13*
%TO.C,U2*%
X180424000Y-104924000D02*
X180424000Y-105585500D01*
X180424000Y-115076000D02*
X180424000Y-114414500D01*
X180828500Y-105328500D02*
X180828500Y-114671500D01*
X180828500Y-114671500D02*
X190171500Y-114671500D01*
X181085500Y-104924000D02*
X180424000Y-104924000D01*
X181085500Y-115076000D02*
X180424000Y-115076000D01*
X189914500Y-104924000D02*
X190576000Y-104924000D01*
X189914500Y-115076000D02*
X190576000Y-115076000D01*
X190171500Y-105328500D02*
X180828500Y-105328500D01*
X190171500Y-114671500D02*
X190171500Y-105328500D01*
X190576000Y-104924000D02*
X190576000Y-105585500D01*
X190576000Y-115076000D02*
X190576000Y-114414500D01*
D14*
X189821500Y-105828500D02*
G75*
G02*
X189521500Y-105828500I-150000J0D01*
G01*
X189521500Y-105828500D02*
G75*
G02*
X189821500Y-105828500I150000J0D01*
G01*
D15*
X192484000Y-106000000D02*
G75*
G02*
X192284000Y-106000000I-100000J0D01*
G01*
X192284000Y-106000000D02*
G75*
G02*
X192484000Y-106000000I100000J0D01*
G01*
%TO.C,Main_c3*%
X305325000Y-47150000D02*
X305325000Y-39850000D01*
X309675000Y-39850000D02*
X309675000Y-47750000D01*
D13*
%TO.C,X1*%
X170243000Y-113593000D02*
X172100000Y-113593000D01*
X170243000Y-115250000D02*
X170243000Y-113593000D01*
X170471500Y-113821500D02*
X170471500Y-117178500D01*
X170471500Y-117178500D02*
X174528500Y-117178500D01*
X174528500Y-113821500D02*
X170471500Y-113821500D01*
X174528500Y-117178500D02*
X174528500Y-113821500D01*
D15*
%TO.C,Main_c5*%
X301025000Y-93450000D02*
X301025000Y-86150000D01*
X305375000Y-86150000D02*
X305375000Y-94050000D01*
%TO.C,Main_c7*%
X329825000Y-119150000D02*
X329825000Y-111850000D01*
X334175000Y-111850000D02*
X334175000Y-119750000D01*
D16*
%TO.C,R2*%
X197727064Y-108590000D02*
X196272936Y-108590000D01*
X197727064Y-110410000D02*
X196272936Y-110410000D01*
D15*
%TO.C,Main_c2*%
X330325000Y-30650000D02*
X330325000Y-23350000D01*
X334675000Y-23350000D02*
X334675000Y-31250000D01*
D16*
%TO.C,R3*%
X197727064Y-106190000D02*
X196272936Y-106190000D01*
X197727064Y-108010000D02*
X196272936Y-108010000D01*
%TO.C,C18*%
X175590000Y-109788748D02*
X175590000Y-111211252D01*
X177410000Y-109788748D02*
X177410000Y-111211252D01*
D15*
%TO.C,Main_C1*%
X17825000Y-31650000D02*
X17825000Y-24350000D01*
X22175000Y-24350000D02*
X22175000Y-32250000D01*
%TD*%
M02*
